<svg version="1.2" xmlns="http://www.w3.org/2000/svg" viewBox="0 0 800 800" width="800" height="800">
	<defs>
		<clipPath clipPathUnits="userSpaceOnUse" id="cp1">
			<path d="m912 912h-1024v-1024h1024z"/>
		</clipPath>
	</defs>
	<style>
		.s0 { fill: #ffffff } 
	</style>
	<g id="Clip-Path" clip-path="url(#cp1)">
		<g>
			<path class="s0" d="m239.12 203.11c65.12 48.88 135.16 148.01 160.88 201.21 25.72-53.2 95.76-152.33 160.88-201.21 46.99-35.28 123.12-62.57 123.12 24.28 0 17.34-9.95 145.71-15.78 166.55-20.27 72.46-94.15 90.94-159.87 79.75 114.87 19.55 144.09 84.31 80.98 149.07-119.86 122.99-172.27-30.86-185.7-70.28-2.46-7.23-3.61-10.61-3.63-7.73-0.02-2.88-1.17 0.5-3.63 7.73-13.43 39.42-65.84 193.27-185.7 70.28-63.11-64.76-33.89-129.52 80.98-149.07-65.72 11.19-139.6-7.29-159.87-79.75-5.84-20.84-15.78-149.21-15.78-166.55 0-86.85 76.13-59.56 123.12-24.28z"/>
		</g>
	</g>
</svg>