<?xml version="1.0" encoding="UTF-8"?>
<svg xmlns="http://www.w3.org/2000/svg" width="600" height="300" viewBox="0 0 600 300">
  <defs>
    <style>
      .cls-1 {
        fill: #fff;
      }

      .cls-2, .cls-3 {
        fill: #1b7fb0;
      }

      .cls-3 {
        stroke: #1b7fb0;
        stroke-miterlimit: 10;
        stroke-width: 7px;
      }
    </style>
  </defs>
  <rect id="background" class="cls-2" width="600" height="300"/>
  <path id="briefcase" class="cls-1" d="m366.47,100.68h-132.84v-55.81h132.84v55.81Zm38.79,0h-210.42v154.05h210.42V100.68Zm-61.93-33.49h-85.95v33.49h85.95v-33.49Z"/>
  <g id="pound">
    <path class="cls-3" d="m288.38,213.53v-.28c4.75-4.05,8.1-9.07,9.64-15.08,1.26-5.02.98-10.33.56-15.64h18.99v-8.8h-20.11c-.84-4.47-1.68-8.94-1.68-14.94,0-9.92,4.47-17.46,15.36-17.46,5.87,0,9.92,1.39,12.43,2.79l2.79-9.22c-2.93-1.81-7.96-3.49-15.22-3.49-15.5,0-26.81,10.75-26.81,27.23,0,5.44.84,10.89,1.54,15.08h-12.99v8.8h14.39c.56,3.64.7,6.43.7,9.78,0,9.54-5.45,18.02-13.49,23.05.01,2.79.03,5.59,0,8.38h55.52v-10.2h-41.62Z"/>
  </g>
</svg>