<?xml version="1.0" encoding="UTF-8"?>
<svg class="canvas" xmlns="http://www.w3.org/2000/svg" viewBox="0 0 514.17 514.17">
  <defs><style>.text{fill:#fff;stroke:#fff;}</style></defs>
  <g id="flickr">
    <path id="path-f" class="text" d="m20.59,253.06H0v-25.35h21.17v-6.44c0-31.18,14.18-42.05,42.15-42.05,7.58,0,13.4,1.21,17.87,2.01l-2.14,24.95c-2.91-1.01-5.83-1.61-11.07-1.61-8.94,0-12.43,6.44-12.43,16.7v6.44h24.86v25.35h-24.86v79.47H20.59v-79.47Z"/>
    <rect id="rect-l" class="text" x="98.68" y="181.64" width="34.96" height="150.89"/>
    <rect id="rect-i-dot" class="text" x="163.55" y="184.05" width="34.96" height="26.56"/>
    <rect id="rect-i" class="text" x="163.55" y="227.71" width="34.96" height="104.82"/>
    <path id="path-c" class="text" d="m303.6,257.68c-6.41-4.02-12.82-5.83-21.17-5.83-15.15,0-26.81,10.86-26.81,28.97,0,16.7,13.6,27.56,28.75,27.56,7.96,0,15.93-1.81,21.76-5.03l.78,26.96c-8.74,3.02-19.23,4.63-28.55,4.63-33.41,0-58.86-20.12-58.86-54.72s25.44-54.92,58.86-54.92c10.49,0,19.81,1.81,27.78,5.83l-2.53,26.55Z"/>
    <polygon id="polygon-k" class="text" points="321.48 181.64 356.44 181.64 356.44 271.77 356.83 271.77 385.97 227.71 424.23 227.71 389.07 275.79 427.14 332.53 384.8 332.53 356.83 280.62 356.44 280.62 356.44 332.53 321.48 332.53 321.48 181.64"/>
    <path id="path-r" class="text" d="m512.42,256.68c-3.88-1.21-7.77-1.21-11.85-1.21-16.32,0-25.45,12.27-25.45,32.79v44.26h-34.96v-104.82h31.86v19.31h.39c6.02-13.28,14.76-21.73,29.91-21.73,4.08,0,8.35.6,11.85,1.21l-1.75,30.18Z"/>
  </g>
</svg>
