<?xml version="1.0" encoding="UTF-8"?>
<svg role="img" height="86" xmlns="http://www.w3.org/2000/svg" viewBox="0 0 517.06 132.44">
  <title>Department for Communities</title>
  <defs>
    <style>
      .cls-1 {
        fill: #00205c;
      }

      .cls-2 {
        fill: #7e57c5;
      }
    </style>
  </defs>
  <g>
    <polygon class="cls-1" points="56.76 99.33 42.57 91.05 42.57 74.5 56.76 66.22 70.95 74.5 70.95 91.05 56.76 99.33"/>
    <polygon class="cls-1" points="56.76 132.44 42.57 124.16 42.57 107.61 56.76 99.33 70.95 107.61 70.95 124.16 56.76 132.44"/>
    <polygon class="cls-1" points="28.38 49.66 14.19 41.39 14.19 24.83 28.38 16.55 42.57 24.83 42.57 41.39 28.38 49.66"/>
    <polygon class="cls-1" points="28.38 82.77 14.19 74.5 14.19 57.94 28.38 49.66 42.57 57.94 42.57 74.5 28.38 82.77"/>
    <polygon class="cls-1" points="28.38 115.88 14.19 107.61 14.19 91.05 28.38 82.77 42.57 91.05 42.57 107.61 28.38 115.88"/>
    <polygon class="cls-1" points="0 66.22 0 33.11 14.19 41.39 14.19 57.94 0 66.22"/>
    <polygon class="cls-1" points="0 99.33 0 66.22 14.19 74.5 14.19 91.05 0 99.33"/>
  </g>
  <g>
    <polygon class="cls-2" points="56.76 33.11 42.57 24.83 42.57 8.28 56.76 0 70.95 8.28 70.95 24.83 56.76 33.11"/>
    <polygon class="cls-2" points="56.76 66.22 42.57 57.94 42.57 41.39 56.76 33.11 70.95 41.39 70.95 57.94 56.76 66.22"/>
    <polygon class="cls-2" points="85.14 49.66 70.95 41.39 70.95 24.83 85.14 16.55 99.33 24.83 99.33 41.39 85.14 49.66"/>
    <polygon class="cls-2" points="85.14 82.77 70.95 74.5 70.95 57.94 85.14 49.66 99.33 57.94 99.33 74.5 85.14 82.77"/>
    <polygon class="cls-2" points="85.14 115.88 70.95 107.61 70.95 91.05 85.14 82.77 99.33 91.05 99.33 107.61 85.14 115.88"/>
    <polygon class="cls-2" points="113.52 66.22 99.33 57.94 99.33 41.39 113.52 33.11 113.52 66.22"/>
    <polygon class="cls-2" points="113.52 99.33 99.33 91.05 99.33 74.5 113.52 66.22 113.52 99.33"/>
  </g>
  <g>
    <polygon class="cls-2" points="154.22 123.42 151.36 113.92 149.73 113.92 147.1 123.36 144.37 113.99 144.35 113.92 142.11 113.92 146.08 127.14 147.89 127.14 150.49 117.73 153.31 127.14 155.1 127.14 158.87 114.05 158.91 113.92 157.07 113.92 154.22 123.42"/>
    <polygon class="cls-2" points="171.35 123.42 168.49 113.92 166.86 113.92 164.23 123.36 161.49 113.99 161.47 113.92 159.23 113.92 163.21 127.14 165.02 127.14 167.61 117.73 170.44 127.14 172.23 127.14 176 114.05 176.03 113.92 174.2 113.92 171.35 123.42"/>
    <polygon class="cls-2" points="188.47 123.42 185.62 113.92 183.99 113.92 181.36 123.36 178.62 113.99 178.6 113.92 176.36 113.92 180.33 127.14 182.15 127.14 184.74 117.73 187.57 127.14 189.36 127.14 193.12 114.05 193.16 113.92 191.32 113.92 188.47 123.42"/>
    <rect class="cls-2" x="193.98" y="124.05" width="3.09" height="3.09"/>
    <path class="cls-2" d="M208.03,122.45c-.44,2.13-1.45,3.17-3.08,3.17-1.04,0-1.86-.45-2.43-1.34-.58-.9-.88-2.19-.88-3.83,0-1.49.3-2.71.89-3.64.59-.93,1.4-1.38,2.49-1.38,1.69,0,2.68,1.03,3.01,3.14l.02.1,2.02-.38v-.1c-.22-1.36-.77-2.48-1.63-3.33-.87-.86-2.04-1.3-3.48-1.3-1.73,0-3.12.67-4.13,2.01-1,1.32-1.51,3-1.51,4.99s.48,3.57,1.43,4.91c.96,1.35,2.36,2.03,4.18,2.03,1.34,0,2.48-.42,3.38-1.25.9-.82,1.48-1.98,1.75-3.43l.02-.1-2.02-.36-.02.09Z"/>
    <path class="cls-2" d="M217.2,113.56c-1.7,0-3.13.64-4.27,1.89-1.14,1.25-1.71,2.94-1.71,5.03,0,1.97.51,3.65,1.52,4.99,1.02,1.34,2.45,2.02,4.26,2.02s3.27-.66,4.4-1.96c1.13-1.3,1.7-2.99,1.7-5.04s-.53-3.63-1.57-4.94c-1.05-1.32-2.5-1.99-4.32-1.99ZM217.15,125.62c-.99,0-1.83-.4-2.5-1.18-.68-.79-1.02-2.13-1.02-3.97,0-1.75.34-3.04,1.02-3.83.67-.79,1.51-1.2,2.48-1.2s1.78.4,2.49,1.18c.71.79,1.07,2.09,1.07,3.86s-.34,3.08-1.02,3.91c-.67.82-1.52,1.24-2.51,1.24Z"/>
    <path class="cls-2" d="M241.53,114.34c-.68-.52-1.48-.78-2.39-.78-1.8,0-3.17.98-4.08,2.92-.22-.76-.63-1.42-1.22-1.97-.67-.62-1.49-.94-2.45-.94-1.62,0-2.94.86-3.91,2.56v-2.2h-1.94v13.21h2.13v-7.88c0-1.1.31-2.03.93-2.74.61-.71,1.34-1.07,2.17-1.07.57,0,1.13.23,1.65.68.52.45.78,1.24.78,2.35v8.67h2.16v-7.43c0-1.42.35-2.48,1.05-3.17.69-.69,1.42-1.03,2.17-1.03.53,0,1.02.17,1.45.5.43.33.7.7.81,1.09.11.41.17,1.03.17,1.85v8.19h2.17v-8.19c0-1.2-.1-2.14-.31-2.81-.21-.67-.66-1.28-1.34-1.8Z"/>
    <path class="cls-2" d="M262.62,114.34c-.68-.52-1.48-.78-2.39-.78-1.8,0-3.17.98-4.08,2.92-.22-.76-.63-1.42-1.22-1.97-.67-.62-1.49-.94-2.45-.94-1.62,0-2.94.86-3.91,2.56v-2.2h-1.94v13.21h2.13v-7.88c0-1.1.31-2.03.93-2.74.61-.71,1.34-1.07,2.17-1.07.57,0,1.13.23,1.65.68.52.45.78,1.24.78,2.35v8.67h2.16v-7.43c0-1.42.35-2.48,1.05-3.17.69-.69,1.42-1.03,2.17-1.03.53,0,1.02.17,1.45.5.43.33.7.7.81,1.09.11.41.17,1.03.17,1.85v8.19h2.17v-8.19c0-1.2-.1-2.14-.31-2.81-.21-.67-.66-1.28-1.34-1.8Z"/>
    <path class="cls-2" d="M275.93,121.35c0,.79-.17,1.52-.52,2.19-.34.67-.78,1.18-1.29,1.54-.51.36-1.08.54-1.71.54s-1.19-.24-1.7-.7c-.51-.46-.77-1.33-.77-2.59v-8.41h-2.22v8.42c0,1.63.39,2.91,1.16,3.81.78.9,1.86,1.35,3.21,1.35,1.75,0,3.11-.85,4.04-2.54v2.18h2.03v-13.21h-2.22v7.43Z"/>
    <path class="cls-2" d="M290.23,114.33c-.7-.51-1.55-.77-2.54-.77-1.62,0-2.96.84-4.01,2.5v-2.14h-2.08v13.21h2.22v-7.24c0-1.32.35-2.39,1.03-3.2.68-.8,1.53-1.2,2.52-1.2.72,0,1.34.24,1.84.71.5.47.75,1.3.75,2.46v8.46h2.09v-7.62c0-1.65-.13-2.8-.39-3.44-.26-.64-.74-1.23-1.44-1.74Z"/>
    <rect class="cls-2" x="295.51" y="113.92" width="2.22" height="13.21"/>
    <rect class="cls-2" x="295.42" y="109.35" width="2.38" height="2.45"/>
    <path class="cls-2" d="M305.6,125.7c-1.34,0-1.99-.63-1.99-1.91v-8.08h2.91v-1.78h-2.91v-3.46l-2.08.2-.09,3.26h-2.31v1.78h2.31v7.74c0,2.68,1.3,4.05,3.88,4.05.53,0,1.16-.05,1.87-.14h.09v-1.81l-.12.02c-.58.09-1.1.14-1.56.14Z"/>
    <rect class="cls-2" x="308.8" y="109.35" width="2.38" height="2.45"/>
    <rect class="cls-2" x="308.89" y="113.92" width="2.22" height="13.21"/>
    <path class="cls-2" d="M325.44,120.71c-.03-2.36-.57-4.16-1.62-5.35-1.05-1.19-2.46-1.8-4.18-1.8s-3.22.66-4.38,1.95c-1.15,1.29-1.74,3-1.74,5.09s.56,3.72,1.67,4.99c1.11,1.27,2.59,1.91,4.39,1.91,1.37,0,2.57-.37,3.58-1.11,1.01-.74,1.7-1.69,2.05-2.81l.03-.11-1.99-.41-.08-.02-.03.08c-.67,1.68-1.78,2.5-3.41,2.5-.89,0-1.75-.34-2.55-1.01-.78-.65-1.19-1.93-1.2-3.8h9.46v-.1ZM316.09,119.1c.1-1.14.48-2.06,1.14-2.74.68-.7,1.51-1.05,2.49-1.05.72,0,1.35.2,1.86.58.51.39.88.86,1.1,1.41.21.53.33,1.13.35,1.81h-6.94Z"/>
    <path class="cls-2" d="M333.42,119.44l-2.54-.46c-1.31-.24-1.94-.8-1.94-1.72,0-.58.25-1.02.75-1.34.51-.33,1.17-.49,1.98-.49,1.63,0,2.67.65,3.19,1.97l.03.08,2.04-.44-.03-.1c-.67-2.25-2.46-3.38-5.33-3.38-1.49,0-2.69.38-3.57,1.12-.89.75-1.34,1.7-1.34,2.81,0,1.01.33,1.84.98,2.46.65.61,1.53,1.03,2.61,1.24l2.74.52c1.45.27,2.15.87,2.15,1.84,0,.66-.27,1.15-.83,1.51-.56.37-1.27.55-2.08.55-2.25,0-3.55-.78-3.98-2.39l-.02-.09-2.13.44.03.1c.74,2.53,2.7,3.81,5.82,3.81,1.66,0,3-.38,4-1.12,1.01-.75,1.52-1.75,1.52-2.98,0-2.14-1.37-3.47-4.06-3.96Z"/>
    <rect class="cls-2" x="338.1" y="119.55" width="6.02" height="1.77"/>
    <path class="cls-2" d="M354.57,114.33c-.7-.51-1.55-.77-2.54-.77-1.62,0-2.96.84-4.01,2.5v-2.14h-2.08v13.21h2.22v-7.24c0-1.32.35-2.39,1.03-3.2.68-.8,1.53-1.2,2.52-1.2.72,0,1.34.24,1.84.71.5.47.75,1.3.75,2.46v8.46h2.09v-7.62c0-1.65-.13-2.8-.39-3.44-.26-.64-.74-1.23-1.44-1.74Z"/>
    <rect class="cls-2" x="359.75" y="109.35" width="2.38" height="2.45"/>
    <rect class="cls-2" x="359.84" y="113.92" width="2.22" height="13.21"/>
    <rect class="cls-2" x="365.35" y="124.05" width="3.09" height="3.09"/>
    <path class="cls-2" d="M380.44,125.06c-.71-.16-1.83-.26-3.31-.3-1.74-.04-2.85-.14-3.31-.29-.43-.14-.64-.44-.64-.91,0-.33.15-.59.45-.8.31-.21.57-.32.78-.32.11,0,.4.05.87.14.25.05.56.08.91.08,1.55,0,2.8-.44,3.72-1.3.92-.87,1.39-1.92,1.39-3.13,0-1.14-.42-2.21-1.24-3.17.1-.5.29-.86.57-1.05.29-.2.9-.3,1.81-.3h.1v-1.8h-.09c-.23-.02-.41-.03-.51-.03-.97,0-1.71.17-2.19.51-.46.32-.77.9-.92,1.7-.78-.34-1.65-.51-2.59-.51-1.4,0-2.61.42-3.58,1.26-.98.84-1.48,1.93-1.48,3.24s.54,2.5,1.6,3.42c-1.14.54-1.72,1.33-1.72,2.33,0,.82.39,1.52,1.16,2.07-1.24.5-1.87,1.39-1.87,2.63,0,1.07.49,1.94,1.47,2.58.96.63,2.5.95,4.58.95,4.41,0,6.65-1.29,6.65-3.82,0-.81-.25-1.51-.76-2.07-.5-.56-1.12-.92-1.85-1.09ZM379.58,129.82c-.91.31-1.93.47-3.03.47-1.18,0-2.17-.18-2.93-.54-.75-.35-1.11-.82-1.11-1.45,0-.74.44-1.29,1.33-1.69.68.08,1.73.14,3.13.18,1.17.03,2.01.09,2.48.15.45.07.81.22,1.07.46.26.24.38.54.38.92,0,.71-.43,1.2-1.32,1.5ZM378.28,120.14c-.52.51-1.2.76-2.03.76s-1.52-.25-2.03-.75c-.51-.5-.77-1.16-.77-1.97,0-.91.29-1.62.85-2.11.57-.49,1.23-.74,1.97-.74s1.43.27,1.97.79c.54.52.81,1.21.81,2.04s-.26,1.48-.78,1.98Z"/>
    <path class="cls-2" d="M389.24,113.56c-1.7,0-3.13.64-4.27,1.89-1.14,1.25-1.71,2.94-1.71,5.03,0,1.97.51,3.65,1.52,4.99,1.02,1.34,2.45,2.02,4.26,2.02s3.27-.66,4.4-1.96c1.13-1.3,1.7-2.99,1.7-5.04s-.53-3.63-1.57-4.94c-1.05-1.32-2.5-1.99-4.32-1.99ZM389.19,125.62c-.99,0-1.83-.4-2.5-1.18-.68-.79-1.02-2.13-1.02-3.97,0-1.75.34-3.04,1.02-3.83.67-.79,1.51-1.2,2.48-1.2s1.78.4,2.49,1.18c.71.79,1.07,2.09,1.07,3.86s-.34,3.08-1.02,3.91c-.67.82-1.52,1.24-2.51,1.24Z"/>
    <polygon class="cls-2" points="401.39 124.29 397.86 113.99 397.83 113.92 395.38 113.92 400.11 127.14 402.34 127.14 406.86 114.05 406.91 113.92 404.9 113.92 401.39 124.29"/>
    <rect class="cls-2" x="407.33" y="124.05" width="3.09" height="3.09"/>
    <path class="cls-2" d="M421.9,121.35c0,.79-.17,1.52-.52,2.19-.34.67-.78,1.18-1.29,1.54-.51.36-1.08.54-1.71.54s-1.19-.24-1.7-.7c-.51-.46-.77-1.33-.77-2.59v-8.41h-2.22v8.42c0,1.63.39,2.91,1.16,3.81.78.9,1.86,1.35,3.21,1.35,1.75,0,3.11-.85,4.04-2.54v2.18h2.03v-13.21h-2.22v7.43Z"/>
    <polygon class="cls-2" points="433.96 118.61 438.13 113.92 435.7 113.92 429.8 120.46 429.8 109.35 427.58 109.35 427.58 127.14 429.8 127.14 429.8 123.05 432.5 119.95 436.24 127.08 436.27 127.14 438.59 127.14 433.96 118.61"/>
  </g>
  <g>
    <path class="cls-1" d="M155.47,17.1c1.36-1.72,2.04-3.85,2.04-6.34s-.71-4.57-2.1-6.27c-1.4-1.71-3.37-2.57-5.88-2.57h-6v17.79h6.72c2.09,0,3.84-.87,5.21-2.59ZM149.41,3.95c1.94,0,3.38.68,4.29,2.03.92,1.36,1.38,2.91,1.38,4.62,0,2.11-.49,3.83-1.45,5.11s-2.38,1.92-4.22,1.92h-3.47V3.95h3.47Z"/>
    <path class="cls-1" d="M165.08,20.06c1.37,0,2.57-.37,3.58-1.11,1.01-.74,1.7-1.69,2.05-2.81l.03-.1-2.07-.42-.03.08c-.67,1.68-1.79,2.5-3.41,2.5-.89,0-1.75-.34-2.55-1.01-.78-.65-1.19-1.93-1.2-3.81h9.46v-.1c-.03-2.36-.57-4.16-1.62-5.35-1.05-1.19-2.46-1.8-4.18-1.8s-3.22.66-4.38,1.95c-1.15,1.29-1.74,3-1.74,5.09s.56,3.72,1.67,4.99c1.11,1.27,2.59,1.91,4.39,1.91ZM161.57,11.67c.1-1.14.48-2.06,1.14-2.74.68-.7,1.51-1.05,2.49-1.05.72,0,1.35.2,1.86.58.51.39.89.86,1.1,1.41.21.53.33,1.14.35,1.81h-6.94Z"/>
    <path class="cls-1" d="M183.16,18.15c.98-1.26,1.48-2.98,1.48-5.12,0-1.98-.48-3.64-1.43-4.94-.96-1.31-2.24-1.97-3.8-1.97-1.73,0-3.08.87-4.01,2.57v-2.21h-2.03v17.6h2.22v-6.12c.94,1.39,2.2,2.09,3.75,2.09s2.83-.64,3.81-1.91ZM178.94,8.09c.98,0,1.78.43,2.38,1.29.6.87.91,2.12.91,3.74,0,1.86-.34,3.19-1,3.94-.66.75-1.43,1.13-2.28,1.13-.74,0-1.46-.32-2.14-.94-.68-.62-1.09-1.42-1.22-2.37v-3.66c.2-.87.62-1.61,1.24-2.22.62-.6,1.32-.91,2.1-.91Z"/>
    <path class="cls-1" d="M187.64,12.69c-1.14.86-1.71,1.98-1.71,3.33,0,1.11.4,2.07,1.2,2.86.8.79,1.95,1.19,3.43,1.19,2.05,0,3.56-.82,4.49-2.45.07.98.14,1.64.21,2.01l.02.08h2.2l-.03-.12c-.18-.75-.27-1.59-.27-2.5v-5.53c0-1.98-.39-3.39-1.15-4.2-.77-.81-2.08-1.22-3.89-1.22-3.41,0-5.38,1.24-5.84,3.68l-.02.1,2.06.35.02-.09c.33-1.52,1.47-2.27,3.49-2.27.82,0,1.49.13,1.99.4.49.26.81.61.96,1.05.15.43.23,1.14.23,2.1-.72-.03-1.27-.05-1.63-.05-2.69,0-4.62.43-5.75,1.29ZM190.98,18.3c-.87,0-1.55-.22-2-.65-.45-.43-.68-.95-.68-1.55,0-.98.42-1.7,1.28-2.21.87-.51,2.1-.77,3.67-.77.42,0,1.02.02,1.79.07.02.28.03.54.03.76,0,1.17-.39,2.2-1.15,3.06-.76.86-1.75,1.3-2.93,1.3Z"/>
    <path class="cls-1" d="M202.86,12.72c.05-1.33.44-2.41,1.16-3.22.72-.81,1.63-1.22,2.71-1.22h.51v-2.12h-.09c-.34-.04-.6-.06-.81-.06-.68,0-1.35.22-2,.65-.58.39-1.16,1.2-1.73,2.41v-2.68h-1.97v13.21h2.22v-6.98Z"/>
    <path class="cls-1" d="M214.24,18.26c-1.34,0-1.99-.63-1.99-1.91v-8.08h2.91v-1.78h-2.91v-3.46l-2.08.2-.09,3.26h-2.31v1.78h2.31v7.74c0,2.68,1.3,4.04,3.87,4.04.53,0,1.16-.05,1.87-.14h.09v-1.81l-.11.02c-.58.09-1.1.14-1.56.14Z"/>
    <path class="cls-1" d="M219.66,11.82c0-1.1.31-2.03.93-2.75.61-.71,1.34-1.07,2.17-1.07.57,0,1.13.23,1.66.68.52.45.78,1.24.78,2.35v8.67h2.16v-7.43c0-1.42.35-2.48,1.05-3.17.69-.69,1.42-1.03,2.17-1.03.53,0,1.02.17,1.45.5s.7.7.81,1.09c.11.41.17,1.03.17,1.85v8.19h2.17v-8.19c0-1.2-.1-2.14-.31-2.81-.21-.67-.66-1.28-1.34-1.8-.68-.52-1.48-.78-2.39-.78-1.8,0-3.17.98-4.08,2.92-.22-.76-.63-1.42-1.22-1.98-.67-.62-1.49-.94-2.45-.94-1.62,0-2.94.86-3.91,2.57v-2.21h-1.94v13.21h2.13v-7.88Z"/>
    <path class="cls-1" d="M243.66,20.06c1.37,0,2.57-.37,3.58-1.11,1.01-.74,1.7-1.69,2.05-2.81l.03-.1-2.07-.42-.03.08c-.67,1.68-1.79,2.5-3.41,2.5-.89,0-1.75-.34-2.55-1.01-.78-.65-1.19-1.93-1.2-3.81h9.46v-.1c-.03-2.36-.57-4.16-1.62-5.35-1.05-1.19-2.46-1.8-4.18-1.8s-3.22.66-4.38,1.95c-1.15,1.29-1.74,3-1.74,5.09s.56,3.72,1.67,4.99c1.11,1.27,2.59,1.91,4.39,1.91ZM240.15,11.67c.1-1.14.48-2.06,1.14-2.74.68-.7,1.51-1.05,2.49-1.05.72,0,1.35.2,1.86.58.51.39.89.86,1.1,1.41.21.53.33,1.14.35,1.81h-6.94Z"/>
    <path class="cls-1" d="M254.18,12.46c0-1.32.35-2.39,1.03-3.2.68-.8,1.53-1.2,2.52-1.2.72,0,1.34.24,1.84.71.5.47.75,1.3.75,2.47v8.46h2.09v-7.62c0-1.65-.13-2.8-.39-3.44-.26-.64-.74-1.23-1.44-1.74-.7-.51-1.55-.77-2.54-.77-1.62,0-2.96.84-4.01,2.5v-2.14h-2.08v13.21h2.22v-7.24Z"/>
    <path class="cls-1" d="M266.14,16.01c0,2.68,1.3,4.04,3.87,4.04.53,0,1.16-.05,1.87-.14h.09v-1.81l-.11.02c-.58.09-1.1.14-1.56.14-1.34,0-1.99-.63-1.99-1.91v-8.08h2.91v-1.78h-2.91v-3.46l-2.08.2-.09,3.26h-2.31v1.78h2.31v7.74Z"/>
    <path class="cls-1" d="M280.07,19.7h2.22v-11.43h3.09v-1.78h-3.09v-.43c0-1.04.2-1.75.61-2.12.4-.37,1.04-.56,1.9-.56.38,0,.8.06,1.22.16l.12.03v-1.82h-.08c-.7-.14-1.33-.2-1.87-.2-1.12,0-2.09.31-2.88.92-.78.61-1.2,1.96-1.24,4.01h-2.22v1.78h2.22v11.43Z"/>
    <path class="cls-1" d="M287.2,18.04c1.02,1.34,2.45,2.02,4.26,2.02s3.27-.66,4.4-1.96c1.13-1.3,1.7-2.99,1.7-5.04s-.53-3.63-1.57-4.94c-1.05-1.32-2.5-1.99-4.32-1.99-1.7,0-3.13.64-4.27,1.89-1.14,1.25-1.71,2.94-1.71,5.03,0,1.97.51,3.65,1.52,4.99ZM291.61,18.19c-.99,0-1.83-.4-2.5-1.18-.68-.79-1.02-2.13-1.02-3.97,0-1.75.34-3.04,1.02-3.83.67-.79,1.51-1.2,2.48-1.2s1.78.4,2.49,1.18c.71.79,1.07,2.09,1.07,3.86s-.34,3.08-1.02,3.91c-.67.82-1.52,1.24-2.51,1.24Z"/>
    <path class="cls-1" d="M302.23,12.72c.05-1.33.44-2.41,1.16-3.22.72-.81,1.63-1.22,2.71-1.22h.51v-2.12h-.09c-.34-.04-.6-.06-.81-.06-.68,0-1.35.22-2,.65-.58.39-1.16,1.2-1.73,2.41v-2.68h-1.97v13.21h2.22v-6.98Z"/>
    <path class="cls-1" d="M173.87,37.7c-3.69-2.75-7.94-4.27-12-4.27-12.53,0-23.11,12.21-23.11,26.67s10.05,27.21,22.41,27.21c4.41,0,8.22-1.33,12.69-4.43l2.54,3.65h1.69v-15.33h-1.76l-.08.23c-3.13,9.01-7.98,13.39-14.84,13.39-4.01,0-7.6-1.65-9.63-4.43-1.94-2.61-2.56-6.96-2.56-17.9s.7-17.57,2.21-20.51c1.86-3.8,5.8-6.08,10.52-6.08,7.37,0,12.31,4.27,14.29,12.35l.07.27h1.79v-14.32h-1.69l-2.53,3.49Z"/>
    <path class="cls-1" d="M197.55,54.64c-8.86,0-16.06,7.31-16.06,16.3s7.21,16.37,16.06,16.37,15.99-7.34,15.99-16.37-7.17-16.3-15.99-16.3ZM203.81,81.55c-1.02,2.18-3.12,3.28-6.26,3.28-2.84,0-4.58-.72-5.83-2.41-1.17-1.6-1.25-2.36-1.25-11.48,0-8.05.08-9.13.74-10.53h0c1.03-2.21,3.1-3.28,6.34-3.28,2.75,0,4.52.74,5.75,2.41,1.17,1.6,1.25,2.35,1.25,11.41,0,8.12-.08,9.21-.74,10.61Z"/>
    <path class="cls-1" d="M266.79,65.6c0-4.3-.42-6.36-1.62-7.88-1.46-1.87-4.43-3.08-7.55-3.08-4.62,0-8.09,1.55-10.59,4.74-1.39-3.23-4.14-4.74-8.61-4.74-3.91,0-6.99,1.3-9.64,4.08v-3.31h-12.85v2.25h5.19v26.63h-5.19v2.25h17.5v-2.25h-4.64v-8.01c0-9.07.32-12.8,1.28-14.79.95-2.05,3.51-3.59,5.95-3.59,3.05,0,4.06,1.11,4.06,7.7v18.69h-4.64v2.25h16.96v-2.25h-4.64v-14.59c0-2.84.08-3.54.15-4.22.15-1.62.54-2.96,1.2-4.13,1.19-2.24,3.56-3.69,6.04-3.69,1.17,0,2.24.37,2.85.98.99.99,1.14,1.9,1.14,6.95v18.69h-4.64v2.25h17.5v-2.25h-5.19v-18.69Z"/>
    <path class="cls-1" d="M322.92,65.6c0-4.3-.42-6.36-1.62-7.88-1.46-1.87-4.43-3.08-7.55-3.08-4.62,0-8.09,1.55-10.59,4.74-1.39-3.23-4.14-4.74-8.61-4.74-3.91,0-6.99,1.3-9.64,4.08v-3.31h-11.85v2.25h5.19v26.63h-5.19v2.25h16.5v-2.25h-4.64v-8.01c0-9.07.32-12.8,1.28-14.79.95-2.05,3.51-3.59,5.95-3.59,3.05,0,4.06,1.11,4.06,7.7v18.69h-4.64v2.25h16.96v-2.25h-4.64v-14.59c0-2.84.08-3.54.15-4.22.15-1.62.54-2.96,1.2-4.13,1.19-2.24,3.56-3.69,6.04-3.69,1.17,0,2.24.37,2.85.98.99.99,1.14,1.9,1.14,6.95v18.69h-4.64v2.25h17.5v-2.25h-5.19v-18.69Z"/>
    <path class="cls-1" d="M359.62,55.42h-12.85v2.25h5.19v10.49c0,8.25-.32,10.69-1.73,13.06-1.34,2.23-3.87,3.62-6.59,3.62-1.51,0-2.83-.43-3.47-1.14-.98-.98-1.14-2.36-1.14-9.89v-18.39h-12.85v2.25h5.19v16.14c0,6.6.47,8.58,2.51,10.62,1.94,1.86,4.94,2.88,8.45,2.88,4.16,0,7.46-1.47,9.64-4.27v3.5h12.77v-2.25h-5.11v-28.87Z"/>
    <path class="cls-1" d="M398.94,67.46c0-5.87-.42-7.68-2.26-9.68-1.68-1.84-4.97-3.13-8-3.13-4.12,0-7.03,1.26-9.56,4.17v-3.39h-12.85v2.25h5.19v26.63h-5.19v2.25h17.5v-2.25h-4.64v-8.86c0-9.24.44-12.7,1.87-14.82,1.15-1.65,3.44-2.95,5.21-2.95,1.51,0,2.72.55,3.6,1.65,1.18,1.48,1.47,4.11,1.47,13.41v11.57h-4.72v2.25h17.5v-2.25h-5.11v-16.83Z"/>
    <path class="cls-1" d="M413.92,44.74c2.5,0,4.68-2.19,4.68-4.68,0-2.67-2.12-4.76-4.84-4.76s-4.61,2-4.61,4.76,2.09,4.68,4.76,4.68Z"/>
    <polygon class="cls-1" points="417.9 55.42 405.05 55.42 405.05 57.66 410.24 57.66 410.24 84.29 405.05 84.29 405.05 86.54 423.01 86.54 423.01 84.29 417.9 84.29 417.9 55.42"/>
    <path class="cls-1" d="M445.21,80.03h-2.25l-.05.28c-.5,2.66-1.67,3.9-3.68,3.9-2.28,0-3.37-.74-3.37-4.91v-21.63h7.74v-2.25h-7.74v-11.84h-1.83l-.09.22c-2.29,5.95-5.27,9.46-10.29,12.12l-.19.1v1.64h4.72v19.23c0,4.75.12,5.74,1.62,7.49,1.51,1.91,3.88,2.92,6.85,2.92,4.82,0,7.75-2.38,8.47-6.87l.07-.41Z"/>
    <polygon class="cls-1" points="457.46 55.42 444.6 55.42 444.6 57.66 449.79 57.66 449.79 84.29 444.6 84.29 444.6 86.54 462.57 86.54 462.57 84.29 457.46 84.29 457.46 55.42"/>
    <path class="cls-1" d="M453.47,44.74c2.5,0,4.68-2.19,4.68-4.68,0-2.67-2.12-4.76-4.84-4.76s-4.61,2-4.61,4.76,2.09,4.68,4.76,4.68Z"/>
    <path class="cls-1" d="M492.78,68.81l-.02-.37c-.55-8.38-6.01-13.79-13.9-13.79s-14.9,7.65-14.9,16.37,7.18,16.3,15.06,16.3c6.62,0,11.92-4.53,13.19-11.28l.08-.41h-2.55l-.07.26c-1.42,5.6-5.17,8.95-10.03,8.95-2.61,0-4.7-1.15-5.89-3.23-.89-1.56-1.04-3.07-1.04-10.74v-2.05h20.07ZM478.7,57.12c2.38,0,4.05.99,4.71,2.8.5,1.29.59,1.87.59,6.65h-11.3v-1.43c0-5.84,1.63-8.01,6-8.01Z"/>
    <path class="cls-1" d="M506.32,66.18c-6.2-1.13-7.3-2.04-7.3-4.07,0-2.8,2.8-4.99,6.38-4.99,4.29,0,7.74,3.03,8.4,7.37l.04.3h1.82l-.25-9.83h-1.72l-1.14,2.36c-2.55-1.95-4.69-2.75-7.3-2.75-5.45,0-9.56,4.24-9.56,9.87,0,6.17,2.83,8.83,10.82,10.18,5.9.91,6.98,2.27,6.98,4.61,0,3.2-2.88,5.61-6.69,5.61-4.94,0-7.73-3-9.65-10.34l-.07-.26h-1.71l.25,12.31h1.37l1.75-2.33c2.84,2.26,5.05,3.1,8.07,3.1,5.94,0,10.26-4.61,10.26-10.96,0-5.89-3.11-8.84-10.74-10.17Z"/>
  </g>
</svg>
