<svg role="img" width="468" height="86" viewBox="0 0 468 86" preserveAspectRatio="xMinYMin meet" xmlns="http://www.w3.org/2000/svg">
  <title>Department for the Economy</title>
  <defs>
    <style>
      @import url(https://fonts.googleapis.com/css2?family=Libre+Bodoni%3Aital%2Cwght%400%2C400%3B0%2C500%3B0%2C600%3B0%2C700%3B1%2C400%3B1%2C500%3B1%2C600%3B1%2C700&amp;display=swap);
      @import url(https://fonts.googleapis.com/css2?family=Libre+Franklin%3Aital%2Cwght%400%2C100%3B0%2C200%3B0%2C300%3B0%2C400%3B0%2C500%3B0%2C600%3B0%2C700%3B0%2C800%3B0%2C900%3B1%2C100%3B1%2C200%3B1%2C300%3B1%2C400%3B1%2C500%3B1%2C600%3B1%2C700%3B1%2C800%3B1%2C900&amp;display=swap);
      .svg-logo-txt-sm {font-family: "Libre Franklin", sans-serif; letter-spacing: -0.2px; white-space: nowrap; font-size: 14px;}
      .svg-logo-txt-lg {font-family: "Libre Bodoni", Georgia; font-size: 40px; letter-spacing: -1.5px; white-space: nowrap;}
    </style>
  </defs>
  <g fill="#2b78c6">
    <path d="m35.5.5 8.9 5.1v10.3L35.5 21l-8.9-5.1V5.7zM35.5 21.2l8.9 5.1v10.3l-8.9 5.1-8.9-5.1V26.3zM53.3 10.9l8.9 5.1v10.3l-8.9 5.1-8.9-5.1V16zM53.3 31.4l8.9 5.1v10.3l-8.9 5.1-8.9-5.1V36.5zM53.3 52l8.9 5.1v10.3l-8.9 5.1-8.9-5.1V57.1zM70.4 21.1v20.6l-8.2-5.1V26.3l8.2-5.1zM70.4 41.7v20.6l-8.2-5.1V46.9l8.2-5.1z"/>
  </g>
  <g fill="#142062">
    <path d="m35.5 41.7 8.9 5.1v10.3l-8.9 5.1-8.9-5.1V46.8zM35.5 62.3l8.9 5.1v10.3l-8.9 5.1-8.9-5.1V67.4zM17.7 10.9l8.9 5.1v10.3l-8.9 5.1-8.9-5.1V16zM17.7 31.4l8.9 5.1v10.3l-8.9 5.1-8.9-5.1V36.5zM17.7 52l8.9 5.1v10.3l-8.9 5.1-8.9-5.1V57.1zM.5 21.1v20.6l8.2-5.1V26.3zM.5 41.8v20.6l8.2-5.1V47z"/>
  </g>
  <g style="fill: rgb(20, 32, 98);" aria-hidden="true">
    <text role="presentation" class="svg-logo-txt-sm" transform="translate(86.9 13)">
      <tspan x="0" y="0">Department for the</tspan>
    </text>
    <text role="presentation" class="svg-logo-txt-lg" transform="translate(83.3 54)">
      <tspan x="0" y="0">Economy</tspan>
    </text>
    <path stroke="#000" d="M263.5 0v65"/>
    <text role="presentation" class="svg-logo-txt-sm" transform="translate(281.5 13)">
      <tspan x="0" y="0">An Roinn</tspan>
    </text>
    <text role="presentation" class="svg-logo-txt-lg" transform="translate(279.6 54)">
      <tspan x="0" y="0">Geilleagair</tspan>
    </text>
  </g>
</svg>
