<?xml version="1.0" encoding="UTF-8" standalone="no"?>

<svg
   version="1.1"
   id="svg2"
   width="1051.72"
   height="187.78667"
   viewBox="0 0 1051.72 187.78667"
   xmlns="http://www.w3.org/2000/svg"
   xmlns:svg="http://www.w3.org/2000/svg">
  <title>Department for the Economy</title>
  <defs
     id="defs6" />
  <g
     id="g8"
     transform="matrix(1.3333333,0,0,-1.3333333,0,187.78667)">
    <g
       id="g10"
       transform="scale(0.1)">
      <path
         d="M 4443.25,1407.54 V 386.828 h -10.26 V 1407.54 h 10.26"
         style="fill:#172258;fill-opacity:1;fill-rule:nonzero;stroke:none"
         id="path12" />
      <path
         d="m 583.758,386.828 -145.93,85.129 -0.008,170.262 145.938,85.121 145.941,-85.121 V 471.957 L 583.758,386.828 v 0"
         style="fill:#172258;fill-opacity:1;fill-rule:nonzero;stroke:none"
         id="path14" />
      <path
         d="m 583.758,46.3008 -145.93,85.1402 -0.008,170.25 145.938,85.137 145.941,-85.137 V 131.441 L 583.758,46.3008 v 0"
         style="fill:#172258;fill-opacity:1;fill-rule:nonzero;stroke:none"
         id="path16" />
      <path
         d="M 291.879,897.609 145.945,982.738 145.941,1153 291.879,1238.13 437.82,1153 V 982.738 L 291.879,897.609 v 0"
         style="fill:#172258;fill-opacity:1;fill-rule:nonzero;stroke:none"
         id="path18" />
      <path
         d="M 291.879,557.078 145.945,642.219 145.941,812.48 291.879,897.609 437.82,812.48 V 642.219 L 291.879,557.078 v 0"
         style="fill:#172258;fill-opacity:1;fill-rule:nonzero;stroke:none"
         id="path20" />
      <path
         d="m 291.879,216.559 -145.934,85.132 -0.004,170.266 145.938,85.121 145.941,-85.121 V 301.691 L 291.879,216.559 v 0"
         style="fill:#172258;fill-opacity:1;fill-rule:nonzero;stroke:none"
         id="path22" />
      <path
         d="m 0,727.34 v 340.53 L 145.941,982.738 V 812.48 L 0,727.34 v 0"
         style="fill:#172258;fill-opacity:1;fill-rule:nonzero;stroke:none"
         id="path24" />
      <path
         d="M 0,386.828 V 727.34 L 145.941,642.219 V 471.957 L 0,386.828 v 0"
         style="fill:#172258;fill-opacity:1;fill-rule:nonzero;stroke:none"
         id="path26" />
      <path
         d="m 583.758,1067.87 -145.93,85.13 -0.008,170.26 145.938,85.14 145.941,-85.14 V 1153 l -145.941,-85.13 v 0"
         style="fill:#2b78c6;fill-opacity:1;fill-rule:nonzero;stroke:none"
         id="path28" />
      <path
         d="m 583.758,727.34 -145.93,85.14 -0.008,170.258 145.938,85.132 145.941,-85.132 V 812.48 L 583.758,727.34 v 0"
         style="fill:#2b78c6;fill-opacity:1;fill-rule:nonzero;stroke:none"
         id="path30" />
      <path
         d="M 875.641,897.609 729.699,982.738 V 1153 L 875.641,1238.13 1021.57,1153 V 982.738 L 875.641,897.609 v 0"
         style="fill:#2b78c6;fill-opacity:1;fill-rule:nonzero;stroke:none"
         id="path32" />
      <path
         d="M 875.641,557.078 729.699,642.219 V 812.48 L 875.641,897.609 1021.57,812.48 V 642.219 L 875.641,557.078 v 0"
         style="fill:#2b78c6;fill-opacity:1;fill-rule:nonzero;stroke:none"
         id="path34" />
      <path
         d="m 875.641,216.559 -145.942,85.132 v 170.266 l 145.942,85.121 145.929,-85.121 V 301.691 L 875.641,216.559 v 0"
         style="fill:#2b78c6;fill-opacity:1;fill-rule:nonzero;stroke:none"
         id="path36" />
      <path
         d="m 1167.51,727.34 -145.93,85.14 -0.01,170.258 145.94,85.132 v -340.53 0"
         style="fill:#2b78c6;fill-opacity:1;fill-rule:nonzero;stroke:none"
         id="path38" />
      <path
         d="m 1167.51,386.828 -145.93,85.129 -0.01,170.262 145.94,85.121 v -340.512 0"
         style="fill:#2b78c6;fill-opacity:1;fill-rule:nonzero;stroke:none"
         id="path40" />
      <path
         d="m 1586.1,88.7383 -29.36,97.6207 h -16.76 l -27.06,-97.0582 -28.15,96.3402 -0.21,0.718 h -23.03 l 40.84,-135.8902 h 18.65 l 26.69,96.7032 29.08,-96.7032 h 18.39 l 38.75,134.5902 0.38,1.3 h -18.9 L 1586.1,88.7383 v 0"
         style="fill:#2b78c6;fill-opacity:1;fill-rule:nonzero;stroke:none"
         id="path42" />
      <path
         d="m 1762.25,88.7383 -29.36,97.6207 h -16.75 l -27.06,-97.0582 -28.15,96.3402 -0.22,0.718 h -23.02 l 40.84,-135.8902 h 18.64 l 26.69,96.7032 29.09,-96.7032 h 18.39 l 38.75,134.5902 0.38,1.3 h -18.9 l -29.32,-97.6207 v 0"
         style="fill:#2b78c6;fill-opacity:1;fill-rule:nonzero;stroke:none"
         id="path44" />
      <path
         d="m 1938.4,88.7383 -29.36,97.6207 h -16.75 l -27.06,-97.0582 -28.15,96.3402 -0.22,0.718 h -23.03 l 40.85,-135.8902 h 18.64 l 26.69,96.7032 29.09,-96.7032 h 18.39 l 38.75,134.5902 0.38,1.3 h -18.91 L 1938.4,88.7383 v 0"
         style="fill:#2b78c6;fill-opacity:1;fill-rule:nonzero;stroke:none"
         id="path46" />
      <path
         d="m 1994.99,50.4688 h 31.74 v 31.7421 h -31.74 v -31.7421 0"
         style="fill:#2b78c6;fill-opacity:1;fill-rule:nonzero;stroke:none"
         id="path48" />
      <path
         d="m 2172.4,116.578 c -0.27,24.262 -5.86,42.774 -16.62,55 -10.81,12.281 -25.26,18.5 -42.98,18.5 -17.98,0 -33.11,-6.738 -45.03,-20.039 -11.86,-13.258 -17.88,-30.879 -17.88,-52.34 0,-21.0271 5.79,-38.2888 17.22,-51.2888 11.45,-13.0313 26.65,-19.6289 45.17,-19.6289 14.03,0 26.41,3.8281 36.77,11.4101 10.39,7.5977 17.48,17.3399 21.06,28.918 l 0.33,1.0898 -20.45,4.1914 -0.84,0.1875 -0.33,-0.8086 c -6.87,-17.3086 -18.35,-25.7187 -35.1,-25.7187 -9.15,0 -17.98,3.4883 -26.23,10.3594 -8.07,6.7187 -12.21,19.8593 -12.35,39.1288 h 97.28 l -0.02,1.039 z m -96.25,16.512 c 1,11.75 4.95,21.23 11.74,28.219 6.97,7.179 15.57,10.812 25.58,10.812 7.41,0 13.85,-2 19.13,-5.949 5.29,-3.973 9.1,-8.832 11.33,-14.473 2.13,-5.41 3.34,-11.668 3.59,-18.609 h -71.37 v 0"
         style="fill:#2b78c6;fill-opacity:1;fill-rule:nonzero;stroke:none"
         id="path50" />
      <path
         d="m 2276.69,98.6289 c -4.53,-21.918 -14.87,-32.5781 -31.67,-32.5781 -10.67,0 -19.1,4.6406 -25,13.7695 -5.98,9.2891 -9.03,22.5387 -9.03,39.3987 0,15.281 3.06,27.871 9.11,37.41 6.03,9.531 14.39,14.172 25.58,14.172 17.39,0 27.52,-10.551 31,-32.262 l 0.17,-1.051 20.82,3.973 -0.16,0.969 c -2.14,13.941 -7.74,25.48 -16.64,34.3 -8.96,8.872 -21.01,13.348 -35.77,13.348 -17.85,0 -32.13,-6.937 -42.51,-20.629 -10.3,-13.609 -15.51,-30.89 -15.51,-51.359 0,-19.7619 4.93,-36.7306 14.71,-50.4689 9.81,-13.8398 24.3,-20.8398 43.02,-20.8398 13.83,0 25.52,4.3085 34.75,12.8203 9.25,8.4687 15.28,20.3476 17.95,35.3164 l 0.19,1.0117 -20.82,3.6719 -0.19,-0.9727 v 0"
         style="fill:#2b78c6;fill-opacity:1;fill-rule:nonzero;stroke:none"
         id="path52" />
      <path
         d="m 2371.02,190.078 c -17.45,0 -32.24,-6.539 -43.97,-19.418 -11.69,-12.871 -17.63,-30.289 -17.63,-51.781 0,-20.2892 5.27,-37.5509 15.65,-51.2892 10.45,-13.8203 25.19,-20.8085 43.83,-20.8085 18.43,0 33.66,6.789 45.3,20.1796 11.6,13.3204 17.47,30.7696 17.47,51.8011 0,20.207 -5.44,37.316 -16.19,50.84 -10.8,13.589 -25.76,20.476 -44.46,20.476 z m -0.53,-124.0272 c -10.16,0 -18.81,4.0898 -25.73,12.168 -6.96,8.1093 -10.49,21.8592 -10.49,40.8592 0,17.953 3.54,31.223 10.49,39.422 6.92,8.16 15.49,12.301 25.47,12.301 9.72,0 18.33,-4.09 25.59,-12.16 7.31,-8.129 11.01,-21.481 11.01,-39.692 0,-18.129 -3.54,-31.6482 -10.5,-40.1599 -6.91,-8.4493 -15.61,-12.7383 -25.84,-12.7383 v 0"
         style="fill:#2b78c6;fill-opacity:1;fill-rule:nonzero;stroke:none"
         id="path54" />
      <path
         d="m 2545.6,182.148 c -7.18,5.262 -15.97,7.93 -26.12,7.93 -16.62,0 -30.48,-8.637 -41.24,-25.687 v 21.968 h -21.4 V 50.4688 h 22.84 v 74.4492 c 0,13.562 3.56,24.602 10.57,32.871 6.95,8.191 15.68,12.352 25.92,12.352 7.38,0 13.75,-2.461 18.91,-7.282 5.15,-4.82 7.76,-13.347 7.76,-25.359 V 50.4688 h 21.53 v 78.4222 c 0,16.929 -1.34,28.828 -3.99,35.371 -2.66,6.597 -7.63,12.609 -14.78,17.886 v 0"
         style="fill:#2b78c6;fill-opacity:1;fill-rule:nonzero;stroke:none"
         id="path56" />
      <path
         d="m 2650.97,190.078 c -17.44,0 -32.23,-6.539 -43.97,-19.418 -11.7,-12.871 -17.61,-30.289 -17.61,-51.781 0,-20.2892 5.27,-37.5509 15.64,-51.2892 10.43,-13.8203 25.2,-20.8085 43.82,-20.8085 18.44,0 33.66,6.789 45.29,20.1796 11.61,13.3204 17.48,30.7696 17.48,51.8011 0,20.207 -5.42,37.316 -16.17,50.84 -10.8,13.589 -25.77,20.476 -44.48,20.476 z m -0.54,-124.0272 c -10.14,0 -18.79,4.0898 -25.71,12.168 -6.97,8.1093 -10.48,21.8592 -10.48,40.8592 0,17.953 3.53,31.223 10.48,39.422 6.92,8.16 15.49,12.301 25.45,12.301 9.74,0 18.36,-4.09 25.61,-12.16 7.31,-8.129 11.01,-21.481 11.01,-39.692 0,-18.129 -3.53,-31.6482 -10.5,-40.1599 -6.91,-8.4493 -15.61,-12.7383 -25.86,-12.7383 v 0"
         style="fill:#2b78c6;fill-opacity:1;fill-rule:nonzero;stroke:none"
         id="path58" />
      <path
         d="m 2901.23,182.051 c -6.99,5.34 -15.25,8.027 -24.53,8.027 -18.54,0 -32.67,-10.066 -42.01,-29.976 -2.24,7.777 -6.46,14.597 -12.54,20.308 -6.89,6.43 -15.37,9.668 -25.23,9.668 -16.71,0 -30.21,-8.859 -40.19,-26.348 v 22.629 H 2736.8 V 50.4688 h 21.92 v 81.0822 c 0,11.347 3.22,20.84 9.58,28.211 6.28,7.316 13.8,11.039 22.26,11.039 5.89,0 11.63,-2.36 17.02,-7.02 5.36,-4.652 8.05,-12.769 8.05,-24.16 V 50.4688 h 22.2 v 76.4532 c 0,14.566 3.63,25.527 10.76,32.59 7.16,7.039 14.63,10.629 22.28,10.629 5.49,0 10.49,-1.731 14.87,-5.153 4.39,-3.41 7.19,-7.199 8.31,-11.258 1.18,-4.21 1.78,-10.589 1.78,-19.011 V 50.4688 h 22.31 v 84.2502 c 0,12.351 -1.06,22.062 -3.16,28.859 -2.13,6.934 -6.75,13.141 -13.75,18.473 v 0"
         style="fill:#2b78c6;fill-opacity:1;fill-rule:nonzero;stroke:none"
         id="path60" />
      <path
         d="m 2987.2,87.8008 -34.99,97.8792 -0.24,0.679 h -23.32 l 46.7,-132.1481 c -4.34,-14.2617 -8.7,-23.3398 -12.96,-26.9804 -4.24,-3.6016 -9.61,-5.4492 -15.95,-5.4492 -3.78,0 -8.38,0.6171 -13.67,1.8476 l -1.28,0.2813 V 5.53906 l 0.76,-0.21093 C 2938.83,3.46094 2944.94,2.5 2950.43,2.5 c 17.47,0 30.33,11.1016 38.22,33 l 53.66,149.488 0.51,1.371 h -19.76 L 2987.2,87.8008 v 0"
         style="fill:#2b78c6;fill-opacity:1;fill-rule:nonzero;stroke:none"
         id="path62" />
      <path
         d="m 3044.57,110.25 h 61.95 v 18.199 h -61.95 v -18.199 0"
         style="fill:#2b78c6;fill-opacity:1;fill-rule:nonzero;stroke:none"
         id="path64" />
      <path
         d="m 3213.94,182.148 c -7.19,5.262 -15.96,7.93 -26.11,7.93 -16.63,0 -30.49,-8.637 -41.26,-25.687 v 21.968 h -21.39 V 50.4688 h 22.86 v 74.4492 c 0,13.562 3.54,24.602 10.54,32.871 6.97,8.191 15.69,12.352 25.94,12.352 7.38,0 13.74,-2.461 18.91,-7.282 5.14,-4.82 7.75,-13.347 7.75,-25.359 V 50.4688 h 21.52 v 78.4222 c 0,16.929 -1.32,28.828 -3.97,35.371 -2.67,6.597 -7.64,12.609 -14.79,17.886 v 0"
         style="fill:#2b78c6;fill-opacity:1;fill-rule:nonzero;stroke:none"
         id="path66" />
      <path
         d="m 3267.28,208.172 h 24.44 v 25.238 h -24.44 v -25.238 0"
         style="fill:#2b78c6;fill-opacity:1;fill-rule:nonzero;stroke:none"
         id="path68" />
      <path
         d="m 3268.22,50.4688 h 22.84 V 186.359 h -22.84 v -135.8902 0"
         style="fill:#2b78c6;fill-opacity:1;fill-rule:nonzero;stroke:none"
         id="path70" />
      <path
         d="m 3324.83,50.4688 h 31.73 v 31.7421 h -31.73 v -31.7421 0"
         style="fill:#2b78c6;fill-opacity:1;fill-rule:nonzero;stroke:none"
         id="path72" />
      <path
         d="m 3480.02,71.7891 c -7.35,1.6328 -18.79,2.6914 -34.05,3.1289 -17.82,0.4414 -29.29,1.4609 -34.02,2.9922 -4.41,1.4687 -6.59,4.5195 -6.59,9.3593 0,3.3907 1.52,6.0821 4.6,8.2422 3.17,2.2188 5.88,3.3281 8.03,3.3281 1.12,0 4.14,-0.4882 8.92,-1.4296 2.61,-0.5313 5.76,-0.8204 9.36,-0.8204 15.93,0 28.82,4.5122 38.29,13.3902 9.47,8.911 14.28,19.739 14.28,32.161 0,11.718 -4.3,22.679 -12.78,32.621 1.05,5.199 3.04,8.816 5.91,10.808 3.04,2.071 9.3,3.129 18.58,3.129 h 1.03 v 18.539 l -0.97,0.071 c -2.35,0.179 -4.16,0.261 -5.23,0.261 -9.98,0 -17.55,-1.75 -22.51,-5.211 -4.78,-3.328 -7.95,-9.23 -9.41,-17.519 -8.05,3.48 -16.97,5.238 -26.66,5.238 -14.41,0 -26.81,-4.359 -36.85,-12.957 -10.07,-8.621 -15.17,-19.851 -15.17,-33.359 0,-13.942 5.51,-25.762 16.46,-35.121 -11.73,-5.61 -17.68,-13.6605 -17.68,-23.9613 0,-8.4102 4.04,-15.5781 11.96,-21.3203 -12.78,-5.1485 -19.25,-14.25 -19.25,-27.0703 0,-11.0078 5.08,-19.9297 15.12,-26.51957 C 3401.28,3.28125 3417.14,0 3438.53,0 c 45.35,0 68.34,13.2109 68.34,39.3086 0,8.3516 -2.61,15.5117 -7.81,21.293 -5.18,5.75 -11.57,9.5078 -19.04,11.1875 z m -8.84,-48.9375 c -9.39,-3.1602 -19.88,-4.7813 -31.2,-4.7813 -12.14,0 -22.29,1.8594 -30.1,5.5508 -7.68,3.5898 -11.41,8.457 -11.41,14.8906 0,7.5977 4.5,13.2774 13.69,17.3672 7.04,-0.8789 17.86,-1.4805 32.17,-1.8203 12.06,-0.3594 20.65,-0.8789 25.53,-1.5898 4.66,-0.6797 8.38,-2.2696 11.02,-4.7696 2.65,-2.4687 3.93,-5.5586 3.93,-9.4375 0,-7.2734 -4.47,-12.3125 -13.63,-15.4101 z m -13.37,99.5464 c -5.32,-5.218 -12.35,-7.859 -20.88,-7.859 -8.6,0 -15.63,2.602 -20.89,7.731 -5.24,5.121 -7.89,11.941 -7.89,20.269 0,9.371 2.97,16.66 8.78,21.691 5.87,5.071 12.69,7.641 20.26,7.641 7.92,0 14.74,-2.75 20.29,-8.121 5.55,-5.41 8.38,-12.441 8.38,-20.93 0,-8.351 -2.71,-15.211 -8.05,-20.422 v 0"
         style="fill:#2b78c6;fill-opacity:1;fill-rule:nonzero;stroke:none"
         id="path74" />
      <path
         d="m 3570.55,190.078 c -17.44,0 -32.23,-6.539 -43.97,-19.418 -11.7,-12.871 -17.61,-30.289 -17.61,-51.781 0,-20.2892 5.27,-37.5509 15.62,-51.2892 10.45,-13.8203 25.22,-20.8085 43.86,-20.8085 18.43,0 33.64,6.789 45.27,20.1796 11.61,13.3204 17.48,30.7696 17.48,51.8011 0,20.207 -5.45,37.316 -16.19,50.84 -10.78,13.589 -25.75,20.476 -44.46,20.476 z m -0.54,-124.0272 c -10.13,0 -18.79,4.0898 -25.71,12.168 -6.96,8.1093 -10.48,21.8592 -10.48,40.8592 0,17.953 3.53,31.223 10.48,39.422 6.92,8.16 15.5,12.301 25.45,12.301 9.72,0 18.36,-4.09 25.61,-12.16 7.31,-8.129 11.01,-21.481 11.01,-39.692 0,-18.129 -3.54,-31.6482 -10.49,-40.1599 -6.93,-8.4493 -15.62,-12.7383 -25.87,-12.7383 v 0"
         style="fill:#2b78c6;fill-opacity:1;fill-rule:nonzero;stroke:none"
         id="path76" />
      <path
         d="m 3695.47,79.75 -36.29,105.922 -0.24,0.687 h -25.27 l 48.71,-135.8902 h 22.88 l 46.52,134.5432 0.47,1.347 h -20.67 L 3695.47,79.75 v 0"
         style="fill:#2b78c6;fill-opacity:1;fill-rule:nonzero;stroke:none"
         id="path78" />
      <path
         d="m 3756.57,50.4688 h 31.75 v 31.7421 h -31.75 v -31.7421 0"
         style="fill:#2b78c6;fill-opacity:1;fill-rule:nonzero;stroke:none"
         id="path80" />
      <path
         d="m 3906.5,109.941 c 0,-8.089 -1.78,-15.6715 -5.33,-22.523 -3.52,-6.8282 -7.98,-12.1875 -13.25,-15.8594 -5.25,-3.6602 -11.17,-5.5078 -17.64,-5.5078 -6.33,0 -12.22,2.418 -17.52,7.2187 -5.28,4.7618 -7.95,13.7188 -7.95,26.6094 v 86.4801 h -22.84 V 99.7891 c 0,-16.8008 4.02,-29.961 11.94,-39.1407 7.96,-9.1992 19.08,-13.8671 32.99,-13.8671 17.96,0 31.94,8.7695 41.58,26.1093 V 50.4688 h 20.88 V 186.359 h -22.86 v -76.418 0"
         style="fill:#2b78c6;fill-opacity:1;fill-rule:nonzero;stroke:none"
         id="path82" />
      <path
         d="m 4073.38,186.359 h -24.99 l -60.7,-67.257 V 233.41 h -22.85 V 50.4688 h 22.85 v 42 l 27.8,31.9532 38.43,-73.3829 0.27,-0.5703 h 23.92 l -47.59,87.7422 42.86,48.148 v 0"
         style="fill:#2b78c6;fill-opacity:1;fill-rule:nonzero;stroke:none"
         id="path84" />
      <path
         d="m 1598.93,1232.48 c 13.97,17.64 21.04,39.59 21.04,65.23 0,25.3 -7.25,47.01 -21.56,64.52 -14.37,17.57 -34.69,26.48 -60.42,26.48 h -61.71 V 1205.8 h 69.12 c 21.52,0 39.54,8.98 53.53,26.68 z m -62.27,135.25 c 19.94,0 34.81,-7.04 44.15,-20.9 9.42,-13.98 14.21,-29.97 14.21,-47.52 0,-21.68 -5.03,-39.36 -14.92,-52.53 -9.82,-13.1 -24.44,-19.75 -43.44,-19.75 h -35.7 v 140.7 h 35.7 v 0"
         style="fill:#172258;fill-opacity:1;fill-rule:nonzero;stroke:none"
         id="path86" />
      <path
         d="m 1697.84,1202.08 c 14.04,0 26.42,3.84 36.78,11.43 10.39,7.61 17.47,17.33 21.04,28.91 l 0.33,1.08 -21.27,4.35 -0.33,-0.79 c -6.88,-17.3 -18.36,-25.72 -35.1,-25.72 -9.15,0 -17.99,3.48 -26.23,10.36 -8.08,6.71 -12.22,19.9 -12.37,39.16 h 97.28 l -0.01,1.02 c -0.27,24.27 -5.86,42.76 -16.63,55 -10.79,12.27 -25.25,18.51 -42.96,18.51 -17.97,0 -33.12,-6.75 -45.03,-20.03 -11.86,-13.28 -17.88,-30.88 -17.88,-52.35 0,-21.03 5.79,-38.3 17.22,-51.29 11.45,-13.02 26.65,-19.64 45.16,-19.64 z m -36.13,86.32 c 1.01,11.72 4.95,21.21 11.76,28.21 6.95,7.18 15.56,10.84 25.56,10.84 7.43,0 13.87,-2.02 19.13,-5.96 5.3,-3.99 9.12,-8.86 11.34,-14.48 2.14,-5.42 3.34,-11.67 3.6,-18.61 h -71.39 v 0"
         style="fill:#172258;fill-opacity:1;fill-rule:nonzero;stroke:none"
         id="path88" />
      <path
         d="m 1805.95,1223.59 c 9.63,-14.27 22.61,-21.51 38.61,-21.51 15.89,0 29.09,6.61 39.24,19.62 10.07,12.94 15.18,30.65 15.18,52.64 0,20.37 -4.96,37.45 -14.73,50.79 -9.87,13.45 -23.02,20.26 -39.08,20.26 -17.8,0 -31.64,-8.9 -41.2,-26.47 v 22.74 h -20.83 V 1160.6 h 22.81 v 62.99 z m 34.38,101.6 c 10.12,0 18.34,-4.47 24.48,-13.29 6.21,-8.92 9.35,-21.85 9.35,-38.43 0,-19.18 -3.46,-32.82 -10.28,-40.55 -6.79,-7.69 -14.68,-11.58 -23.42,-11.58 -7.57,0 -14.97,3.25 -21.98,9.65 -7.02,6.41 -11.24,14.63 -12.53,24.31 v 37.66 c 2.09,8.91 6.38,16.6 12.77,22.86 6.34,6.2 13.62,9.37 21.61,9.37 v 0"
         style="fill:#172258;fill-opacity:1;fill-rule:nonzero;stroke:none"
         id="path90" />
      <path
         d="m 1929.86,1277.9 c -11.69,-8.89 -17.62,-20.38 -17.62,-34.2 0,-11.37 4.17,-21.25 12.36,-29.38 8.19,-8.11 20.08,-12.24 35.31,-12.24 21.11,0 36.61,8.48 46.13,25.22 0.73,-10.04 1.45,-16.82 2.16,-20.68 l 0.16,-0.82 h 22.66 l -0.28,1.24 c -1.83,7.75 -2.77,16.39 -2.77,25.75 v 56.83 c 0,20.33 -3.99,34.86 -11.87,43.18 -7.9,8.36 -21.36,12.59 -40.03,12.59 -35.12,0 -55.32,-12.73 -60.1,-37.82 l -0.19,-1.01 21.2,-3.65 0.2,0.97 c 3.36,15.66 15.09,23.3 35.84,23.3 8.45,0 15.33,-1.39 20.47,-4.12 5.04,-2.7 8.37,-6.31 9.91,-10.77 1.53,-4.44 2.33,-11.7 2.39,-21.6 -7.43,0.33 -13.05,0.48 -16.73,0.48 -27.65,0 -47.57,-4.45 -59.2,-13.27 z m 34.28,-57.76 c -8.96,0 -15.9,2.25 -20.58,6.65 -4.65,4.37 -7.02,9.75 -7.02,15.98 0,10.09 4.31,17.53 13.16,22.78 8.89,5.28 21.6,7.95 37.77,7.95 4.27,0 10.45,-0.25 18.4,-0.74 0.22,-2.92 0.33,-5.55 0.33,-7.8 0,-12 -4,-22.59 -11.87,-31.48 -7.84,-8.84 -18,-13.34 -30.19,-13.34 v 0"
         style="fill:#172258;fill-opacity:1;fill-rule:nonzero;stroke:none"
         id="path92" />
      <path
         d="m 2086.32,1277.53 c 0.52,13.66 4.54,24.82 11.94,33.17 7.36,8.29 16.73,12.51 27.86,12.51 h 5.26 v 21.81 l -0.91,0.09 c -3.46,0.37 -6.18,0.53 -8.32,0.53 -6.97,0 -13.87,-2.26 -20.53,-6.73 -5.95,-4.02 -11.95,-12.35 -17.82,-24.83 v 27.58 h -20.31 V 1205.8 h 22.83 v 71.73 0"
         style="fill:#172258;fill-opacity:1;fill-rule:nonzero;stroke:none"
         id="path94" />
      <path
         d="m 2160.66,1243.68 c 0,-27.59 13.39,-41.6 39.84,-41.6 5.42,0 11.89,0.49 19.21,1.48 l 0.88,0.1 v 18.52 l -1.17,-0.18 c -5.92,-0.96 -11.3,-1.46 -16.01,-1.46 -13.76,0 -20.46,6.44 -20.46,19.69 v 83.1 h 29.95 v 18.33 h -29.95 v 35.61 l -21.36,-2.03 -0.91,-33.58 h -23.75 v -18.33 h 23.73 v -79.65 0"
         style="fill:#172258;fill-opacity:1;fill-rule:nonzero;stroke:none"
         id="path96" />
      <path
         d="m 2259.19,1286.84 c 0,11.36 3.21,20.87 9.56,28.23 6.32,7.32 13.8,11.05 22.28,11.05 5.92,0 11.64,-2.38 17.04,-7.05 5.33,-4.63 8.06,-12.75 8.06,-24.13 v -89.14 h 22.18 v 76.41 c 0,14.58 3.63,25.55 10.75,32.6 7.14,7.07 14.65,10.64 22.29,10.64 5.48,0 10.49,-1.74 14.87,-5.15 4.39,-3.42 7.2,-7.21 8.33,-11.25 1.17,-4.22 1.76,-10.62 1.76,-19.02 v -84.23 h 22.3 v 84.23 c 0,12.34 -1.06,22.04 -3.16,28.86 -2.12,6.91 -6.74,13.13 -13.74,18.47 -7,5.32 -15.25,8.03 -24.54,8.03 -18.52,0 -32.64,-10.1 -42,-30 -2.23,7.79 -6.46,14.61 -12.56,20.31 -6.88,6.42 -15.35,9.69 -25.21,9.69 -16.71,0 -30.22,-8.88 -40.2,-26.41 v 22.68 h -19.91 V 1205.8 h 21.9 v 81.04 0"
         style="fill:#172258;fill-opacity:1;fill-rule:nonzero;stroke:none"
         id="path98" />
      <path
         d="m 2506.03,1202.08 c 14.04,0 26.41,3.84 36.78,11.43 10.38,7.61 17.45,17.33 21.04,28.91 l 0.34,1.08 -21.3,4.35 -0.31,-0.79 c -6.88,-17.3 -18.36,-25.72 -35.1,-25.72 -9.15,0 -17.99,3.48 -26.24,10.36 -8.07,6.71 -12.22,19.9 -12.36,39.16 h 97.28 l -0.01,1.02 c -0.29,24.27 -5.86,42.76 -16.64,55 -10.79,12.27 -25.25,18.51 -42.96,18.51 -17.97,0 -33.12,-6.75 -45.01,-20.03 -11.88,-13.28 -17.89,-30.88 -17.89,-52.35 0,-21.03 5.79,-38.3 17.22,-51.29 11.44,-13.02 26.64,-19.64 45.16,-19.64 z m -36.13,86.32 c 1.01,11.72 4.94,21.21 11.75,28.21 6.95,7.18 15.56,10.84 25.57,10.84 7.43,0 13.87,-2.02 19.13,-5.96 5.3,-3.99 9.11,-8.86 11.33,-14.48 2.13,-5.42 3.34,-11.67 3.6,-18.61 h -71.38 v 0"
         style="fill:#172258;fill-opacity:1;fill-rule:nonzero;stroke:none"
         id="path100" />
      <path
         d="m 2614.13,1280.22 c 0,13.56 3.56,24.62 10.57,32.87 6.98,8.2 15.68,12.36 25.92,12.36 7.42,0 13.76,-2.45 18.94,-7.28 5.15,-4.81 7.76,-13.35 7.76,-25.36 v -87.01 h 21.51 v 78.4 c 0,16.91 -1.35,28.82 -3.98,35.36 -2.68,6.61 -7.66,12.62 -14.79,17.87 -7.19,5.28 -15.97,7.96 -26.11,7.96 -16.63,0 -30.5,-8.66 -41.25,-25.72 v 21.99 h -21.38 V 1205.8 h 22.81 v 74.42 0"
         style="fill:#172258;fill-opacity:1;fill-rule:nonzero;stroke:none"
         id="path102" />
      <path
         d="m 2737.13,1243.68 c 0,-27.59 13.39,-41.6 39.83,-41.6 5.44,0 11.91,0.49 19.24,1.48 l 0.87,0.1 v 18.52 l -1.17,-0.18 c -5.92,-0.96 -11.3,-1.46 -16,-1.46 -13.78,0 -20.47,6.44 -20.47,19.69 v 83.1 h 29.95 v 18.33 h -29.95 v 35.61 l -21.36,-2.03 -0.93,-33.58 h -23.73 v -18.33 h 23.72 v -79.65 0"
         style="fill:#172258;fill-opacity:1;fill-rule:nonzero;stroke:none"
         id="path104" />
      <path
         d="m 2880.44,1205.8 h 22.84 v 117.53 h 31.8 v 18.33 h -31.8 v 4.42 c 0,10.7 2.08,18.05 6.22,21.85 4.16,3.82 10.73,5.77 19.54,5.77 3.94,0 8.18,-0.58 12.58,-1.69 l 1.26,-0.33 v 18.73 l -0.84,0.14 c -7.18,1.25 -13.65,1.87 -19.25,1.87 -11.57,0 -21.52,-3.19 -29.57,-9.49 -8.01,-6.25 -12.3,-20.14 -12.77,-41.27 h -22.81 v -18.33 h 22.8 v -117.53 0"
         style="fill:#172258;fill-opacity:1;fill-rule:nonzero;stroke:none"
         id="path106" />
      <path
         d="m 2953.76,1222.91 c 10.46,-13.83 25.18,-20.83 43.82,-20.83 18.44,0 33.67,6.79 45.28,20.18 11.61,13.34 17.49,30.76 17.49,51.79 0,20.22 -5.45,37.33 -16.21,50.86 -10.79,13.57 -25.75,20.48 -44.44,20.48 -17.44,0 -32.22,-6.55 -43.96,-19.45 -11.69,-12.87 -17.62,-30.27 -17.62,-51.75 0,-20.3 5.28,-37.55 15.64,-51.28 z m 45.41,-1.57 c -10.14,0 -18.82,4.11 -25.73,12.17 -6.97,8.12 -10.5,21.88 -10.5,40.88 0,17.97 3.55,31.22 10.5,39.42 6.94,8.17 15.49,12.31 25.47,12.31 9.72,0 18.34,-4.1 25.61,-12.19 7.29,-8.13 11.01,-21.47 11.01,-39.66 0,-18.15 -3.55,-31.66 -10.5,-40.19 -6.94,-8.45 -15.64,-12.74 -25.86,-12.74 v 0"
         style="fill:#172258;fill-opacity:1;fill-rule:nonzero;stroke:none"
         id="path108" />
      <path
         d="m 3108.38,1277.53 c 0.52,13.66 4.52,24.82 11.92,33.17 7.37,8.29 16.73,12.51 27.86,12.51 h 5.26 v 21.81 l -0.9,0.09 c -3.47,0.37 -6.19,0.53 -8.32,0.53 -6.98,0 -13.88,-2.26 -20.53,-6.73 -5.96,-4.02 -11.95,-12.35 -17.84,-24.83 v 27.58 h -20.29 V 1205.8 h 22.84 v 71.73 0"
         style="fill:#172258;fill-opacity:1;fill-rule:nonzero;stroke:none"
         id="path110" />
      <path
         d="m 3296.53,1203.56 0.88,0.1 v 18.52 l -1.19,-0.18 c -5.9,-0.96 -11.29,-1.46 -16,-1.46 -13.76,0 -20.46,6.44 -20.46,19.69 v 83.1 h 29.95 v 18.33 h -29.95 v 35.61 l -21.35,-2.03 -0.91,-33.58 h -23.76 v -18.33 h 23.73 v -79.65 c 0,-27.59 13.39,-41.6 39.84,-41.6 5.41,0 11.88,0.49 19.22,1.48 v 0"
         style="fill:#172258;fill-opacity:1;fill-rule:nonzero;stroke:none"
         id="path112" />
      <path
         d="m 3336.92,1278.9 c 0,14.35 3.55,25.95 10.58,34.47 6.95,8.46 15.72,12.75 26.04,12.75 5.58,0 10.58,-1.69 14.82,-5.03 4.26,-3.32 6.99,-7.3 8.12,-11.83 1.16,-4.65 1.76,-11.78 1.76,-21.21 v -82.25 h 22.83 v 82.25 c 0,11.67 -0.59,19.79 -1.81,24.83 -1.21,4.96 -3.5,10.08 -6.81,15.2 -3.38,5.17 -8.26,9.39 -14.52,12.56 -6.26,3.15 -13.49,4.75 -21.48,4.75 -16.73,0 -30.02,-8.51 -39.53,-25.31 v 68.63 H 3314.1 V 1205.8 h 22.82 v 73.1 0"
         style="fill:#172258;fill-opacity:1;fill-rule:nonzero;stroke:none"
         id="path114" />
      <path
         d="m 3508.48,1202.08 c 14.05,0 26.42,3.84 36.78,11.43 10.38,7.61 17.46,17.33 21.05,28.91 l 0.34,1.08 -21.3,4.35 -0.3,-0.79 c -6.9,-17.3 -18.37,-25.72 -35.11,-25.72 -9.16,0 -17.99,3.48 -26.25,10.36 -8.06,6.71 -12.21,19.9 -12.35,39.16 h 97.28 v 1.02 c -0.29,24.27 -5.87,42.76 -16.65,55 -10.77,12.27 -25.25,18.51 -42.95,18.51 -17.96,0 -33.14,-6.75 -45.04,-20.03 -11.86,-13.28 -17.87,-30.88 -17.87,-52.35 0,-21.03 5.78,-38.3 17.22,-51.29 11.45,-13.02 26.65,-19.64 45.15,-19.64 z m -36.13,86.32 c 1.01,11.72 4.95,21.21 11.75,28.21 6.97,7.18 15.57,10.84 25.59,10.84 7.41,0 13.85,-2.02 19.12,-5.96 5.31,-3.99 9.1,-8.86 11.33,-14.48 2.15,-5.42 3.34,-11.67 3.6,-18.61 h -71.39 v 0"
         style="fill:#172258;fill-opacity:1;fill-rule:nonzero;stroke:none"
         id="path116" />
      <path
         d="m 1836.67,691.16 h -16.98 l -0.76,-2.582 C 1799.05,621.035 1793.66,605.609 1776.42,580.539 1753.29,546.613 1740.03,541.5 1675.1,541.5 h -97.52 v 238.004 h 21.88 c 70.37,0 80.96,-12.363 87.17,-101.731 l 0.24,-3.355 h 17.3 v 226.125 h -17.45 l -0.09,-3.516 c -1.55,-66.347 -11.9,-85.281 -50.34,-92.062 -9.22,-1.535 -17.77,-2.309 -58.71,-3.07 v 231.585 h 57.71 c 39.66,0 49.08,0 59.15,-1.57 29.85,-4.71 50.88,-16.16 66.18,-36.062 16.27,-20.922 25.68,-44.285 35.95,-89.352 l 0.64,-2.793 h 16.96 l -5.84,152.887 h -389.2 v -23.11 h 66.09 V 541.5 h -66.09 v -23.109 h 401.76 l 15.78,172.769 v 0"
         style="fill:#172258;fill-opacity:1;fill-rule:nonzero;stroke:none"
         id="path118" />
      <path
         d="m 1866.54,676.438 c 0,-88.446 72.73,-166.024 155.66,-166.024 63.62,0 106.43,35.414 134.73,111.414 l 1.81,4.852 h -27.68 l -0.81,-2.45 c -19.26,-57.773 -54.69,-88.304 -102.48,-88.304 -22.31,0 -41.12,7.754 -52.93,21.746 -12.82,15.836 -16.72,38.555 -16.72,97.25 0,142.914 21.95,165.992 74.43,165.992 25.46,0 51.34,-12.273 51.34,-21.09 0,-0.906 0,-0.906 -2.41,-3.312 -10.46,-13.102 -16.71,-27.332 -16.71,-38.09 0,-25.09 16.22,-42.602 39.42,-42.602 24.92,0 41.03,17.965 41.03,45.785 0,44.383 -53.71,84.801 -112.67,84.801 -91.55,0 -166.01,-76.25 -166.01,-169.968 v 0"
         style="fill:#172258;fill-opacity:1;fill-rule:nonzero;stroke:none"
         id="path120" />
      <path
         d="m 2335.87,846.406 c -91.11,0 -165.22,-75.179 -165.22,-167.597 0,-92.856 74.11,-168.395 165.22,-168.395 90.65,0 164.41,75.539 164.41,168.395 0,92.418 -73.76,167.597 -164.41,167.597 z m 64.4,-276.734 c -10.45,-22.395 -32.12,-33.746 -64.4,-33.746 -29.2,0 -47.14,7.41 -59.99,24.789 -12,16.5 -12.84,24.223 -12.84,118.094 0,82.769 0.78,93.906 7.61,108.332 l 0.01,0.007 c 10.59,22.707 31.92,33.766 65.21,33.766 28.25,0 46.5,-7.652 59.19,-24.797 12,-16.512 12.84,-24.183 12.84,-117.308 0,-83.485 -0.78,-94.704 -7.63,-109.137 v 0"
         style="fill:#172258;fill-opacity:1;fill-rule:nonzero;stroke:none"
         id="path122" />
      <path
         d="m 2723.22,541.5 v -23.109 h 179.93 V 541.5 h -52.53 v 173.141 c 0,60.406 -4.33,79.015 -23.23,99.554 -17.31,18.965 -51.15,32.211 -82.27,32.211 -42.38,0 -72.31,-12.918 -98.31,-42.867 v 34.914 H 2514.64 V 815.34 h 53.32 V 541.5 h -53.32 v -23.109 h 179.95 V 541.5 h -47.78 v 91.137 c 0,95.043 4.53,130.656 19.25,152.383 11.83,17.003 35.35,30.32 53.57,30.32 15.55,0 28.02,-5.715 37.01,-16.973 12.17,-15.187 15.14,-42.254 15.14,-137.871 V 541.5 h -48.56 v 0"
         style="fill:#172258;fill-opacity:1;fill-rule:nonzero;stroke:none"
         id="path124" />
      <path
         d="m 3072.38,846.406 c -91.1,0 -165.21,-75.179 -165.21,-167.597 0,-92.856 74.11,-168.395 165.21,-168.395 90.66,0 164.39,75.539 164.39,168.395 0,92.418 -73.73,167.597 -164.39,167.597 z m 64.39,-276.734 c -10.45,-22.395 -32.12,-33.746 -64.39,-33.746 -29.22,0 -47.16,7.41 -59.99,24.789 -12,16.5 -12.86,24.223 -12.86,118.094 0,82.769 0.78,93.906 7.61,108.332 l 0.02,0.007 c 10.61,22.707 31.92,33.766 65.22,33.766 28.24,0 46.5,-7.652 59.16,-24.797 12.02,-16.512 12.86,-24.183 12.86,-117.308 0,-83.485 -0.78,-94.704 -7.63,-109.137 v 0"
         style="fill:#172258;fill-opacity:1;fill-rule:nonzero;stroke:none"
         id="path126" />
      <path
         d="m 3431.1,541.5 h -47.78 v 82.379 c 0,93.242 3.35,131.621 13.21,152.133 9.77,21.051 36.08,36.929 61.21,36.929 31.36,0 41.79,-11.453 41.79,-79.195 V 541.5 h -47.77 v -23.109 h 174.38 V 541.5 h -47.77 v 150.063 c 0,29.246 0.8,36.425 1.59,43.429 1.58,16.633 5.6,30.492 12.33,42.434 12.27,23.027 36.64,37.914 62.09,37.914 12.04,0 23,-3.785 29.33,-10.113 10.13,-10.133 11.67,-19.485 11.67,-71.481 V 541.5 h -47.77 v -23.109 h 179.96 V 541.5 h -53.35 v 192.246 c 0,44.223 -4.38,65.434 -16.69,81.031 -15.03,19.215 -45.52,31.629 -77.66,31.629 -47.56,0 -83.24,-15.968 -108.87,-48.781 -14.27,33.242 -42.58,48.781 -88.57,48.781 -40.21,0 -71.93,-13.386 -99.11,-41.98 v 34.027 H 3251.15 V 815.34 h 53.33 V 541.5 h -53.33 v -23.109 h 179.95 v 23.109 0"
         style="fill:#172258;fill-opacity:1;fill-rule:nonzero;stroke:none"
         id="path128" />
      <path
         d="M 4015.47,838.453 V 815.34 h 60.56 l -69.2,-190.488 -82.6,190.488 h 53.86 v 23.113 H 3801.32 V 815.34 h 35.51 L 3970.59,521.855 3926.57,405.48 c -14.91,-37.691 -16.12,-39.921 -21.34,-39.921 -2.97,0 -4.38,0.3 -9.81,7.25 -8.75,12.269 -20.92,18.23 -37.17,18.23 -23.38,0 -41,-17.641 -41,-41.008 0,-24.312 21.05,-42.621 48.97,-42.621 37.38,0 61.89,25.129 84.57,86.75 l 154.39,421.18 h 32.91 v 23.113 h -122.62 v 0"
         style="fill:#172258;fill-opacity:1;fill-rule:nonzero;stroke:none"
         id="path130" />
      <path
         d="m 4889.05,1285.46 h -50.64 l 25.44,78.97 z m -9.68,106.95 h -26.72 l -56.64,-175.01 -0.46,-1.41 h 20.59 l 15.49,50.81 h 62.96 l 17.27,-50.09 0.26,-0.72 h 24.6 l -57.11,175.69 -0.24,0.73"
         style="fill:#172258;fill-opacity:1;fill-rule:nonzero;stroke:none"
         id="path132" />
      <path
         d="m 5014.23,1350.5 c -16.65,0 -31.21,-9.16 -39.57,-24.7 v 21.4 h -20.95 v -131.21 h 21.97 v 68.65 c 0,11.48 1.2,23.55 9.91,34.1 6.83,8.1 16.02,12.58 25.85,12.58 8.61,0 17.32,-4.59 21.16,-11.14 3.45,-5.97 3.43,-14.85 3.42,-21.97 l -0.01,-82.22 h 21.98 v 72.46 l 0.01,2.53 c 0.03,12.68 0.07,28.46 -6.26,38.93 -8.13,13.48 -21.1,20.59 -37.51,20.59"
         style="fill:#172258;fill-opacity:1;fill-rule:nonzero;stroke:none"
         id="path134" />
      <path
         d="m 5194.14,1371.46 h 42.36 c 9.54,0 16.34,-0.38 23.53,-5.41 7.77,-5.18 11.71,-13 11.71,-23.23 0,-8.72 -3.04,-16.57 -8.58,-22.12 -8.39,-8.64 -17.79,-9.32 -29.21,-9.32 h -39.81 z m 101.61,-28.9 c 0,15.37 -7.09,29.92 -18.97,38.96 -12.62,9.61 -27.44,10.89 -40.28,10.89 h -66.37 v -176.42 h 24.01 v 75.44 h 46.47 l 32.26,-75.44 h 25.21 l -34.45,81.16 c 19.26,5.88 32.12,23.96 32.12,45.41"
         style="fill:#172258;fill-opacity:1;fill-rule:nonzero;stroke:none"
         id="path136" />
      <path
         d="m 5400.14,1250.08 c -6.04,-11.59 -16.26,-17.97 -28.76,-17.97 -11.18,0 -21.87,6.16 -27.26,15.7 -5.97,10.87 -7.23,24.92 -7.23,34.8 0,7.33 0.81,21.2 6.24,31.77 5.46,10.92 16.28,17.71 28.25,17.71 10.77,0 21.13,-5.66 27.03,-14.75 7.13,-11.25 7.96,-25.21 7.96,-34.73 0,-9.63 -0.71,-22.02 -6.23,-32.53 z m -27.24,100.42 c -41.63,0 -60.27,-34.1 -60.27,-67.89 0,-34.43 17.61,-69.16 56.97,-69.16 41.93,0 61.03,35.71 61.03,68.9 0,32.83 -18.06,68.15 -57.73,68.15"
         style="fill:#172258;fill-opacity:1;fill-rule:nonzero;stroke:none"
         id="path138" />
      <path
         d="m 5453.61,1367.91 h 24.01 v 24.5 h -24.01 v -24.5"
         style="fill:#172258;fill-opacity:1;fill-rule:nonzero;stroke:none"
         id="path140" />
      <path
         d="m 5454.63,1215.99 h 21.97 v 131.21 h -21.97 v -131.21"
         style="fill:#172258;fill-opacity:1;fill-rule:nonzero;stroke:none"
         id="path142" />
      <path
         d="m 5567.98,1350.5 c -16.65,0 -31.21,-9.16 -39.56,-24.7 v 21.4 h -20.96 v -131.21 h 21.98 v 68.65 c 0,11.48 1.19,23.55 9.9,34.1 6.83,8.1 16.02,12.58 25.85,12.58 8.62,0 17.32,-4.59 21.17,-11.14 3.44,-5.97 3.42,-14.85 3.41,-21.97 v -82.22 h 21.98 v 72.46 2.53 c 0.03,12.68 0.07,28.46 -6.26,38.93 -8.13,13.48 -21.1,20.59 -37.51,20.59"
         style="fill:#172258;fill-opacity:1;fill-rule:nonzero;stroke:none"
         id="path144" />
      <path
         d="m 5742.66,1329.91 c -8.13,13.48 -21.1,20.59 -37.51,20.59 -16.65,0 -31.21,-9.16 -39.56,-24.7 v 21.4 h -20.96 v -131.21 h 21.98 v 68.65 c 0,11.48 1.19,23.55 9.9,34.1 6.83,8.1 16.02,12.58 25.85,12.58 8.62,0 17.32,-4.59 21.17,-11.14 3.44,-5.97 3.42,-14.85 3.41,-21.97 l -0.01,-82.22 h 21.99 v 72.46 2.53 c 0.03,12.68 0.07,28.46 -6.26,38.93"
         style="fill:#172258;fill-opacity:1;fill-rule:nonzero;stroke:none"
         id="path146" />
      <path
         d="m 4967.45,678.945 h 75.89 c -0.14,-43.777 -2.84,-68.105 -9.73,-88.843 -13.2,-38.09 -46.66,-62.707 -85.23,-62.707 -40.8,0 -76.07,23.414 -89.88,59.66 -12.7,32.644 -18.13,90.148 -18.13,192.246 0,107.402 9.09,176.418 27.04,205.164 17.47,28.765 51.47,45.945 90.94,45.945 35,0 62.88,-11.31 87.75,-35.586 27.22,-25.996 41.88,-55.703 54.08,-109.601 l 0.69,-3.055 h 18.66 l -4.02,166.432 h -15.66 l -25,-30.57 c -40.71,26.64 -75.35,38.55 -111.9,38.55 -125.61,0 -227.8,-124.744 -227.8,-278.08 0,-152.895 99.1,-277.273 220.9,-277.273 62.93,0 131.4,37.308 162.81,88.742 14.4,23.633 20.84,48.004 23.36,88.976 h 49.28 v 23.782 h -224.05 v -23.782"
         style="fill:#172258;fill-opacity:1;fill-rule:nonzero;stroke:none"
         id="path148" />
      <path
         d="m 5365.45,812.035 c 22.57,0 39.1,-10.375 45.39,-28.539 4.95,-13.211 5.84,-19.234 5.89,-68.016 h -110.98 c 0.01,54.883 0.18,55.223 8.01,70.02 8.34,16.609 27.66,26.535 51.69,26.535 z m 139.05,-120.34 -0.19,4.098 c -1.54,33.652 -6.91,53.535 -20.5,75.961 -25.11,41.617 -69.07,66.449 -117.59,66.449 -78.87,0 -148.06,-78.543 -148.06,-168.09 0,-89.968 70.98,-168.886 151.89,-168.886 63.3,0 116.27,47.847 128.83,116.371 l 0.85,4.632 h -26.19 l -0.73,-2.988 c -14.02,-57.512 -50.71,-91.847 -98.15,-91.847 -27.98,0 -48.5,11.91 -59.37,34.5 -8.12,16.113 -9.54,32.656 -9.54,110.609 v 19.191 h 198.75"
         style="fill:#172258;fill-opacity:1;fill-rule:nonzero;stroke:none"
         id="path150" />
      <path
         d="m 5611.56,939.547 c 26.27,0 46.86,21.68 46.86,49.351 0,27.672 -20.59,49.352 -46.86,49.352 -26.28,0 -46.1,-20.87 -46.1,-48.551 0,-28.594 19.82,-50.152 46.1,-50.152"
         style="fill:#172258;fill-opacity:1;fill-rule:nonzero;stroke:none"
         id="path152" />
      <path
         d="m 5653.05,830.242 h -128.22 v -23.785 h 51.37 V 532.973 h -51.37 v -23.782 h 178.82 v 23.782 h -50.6 v 297.269"
         style="fill:#172258;fill-opacity:1;fill-rule:nonzero;stroke:none"
         id="path154" />
      <path
         d="m 5850.08,1048.6 h -128.22 v -23.78 h 51.36 V 532.973 h -51.36 v -23.782 h 178.82 v 23.782 h -50.6 V 1048.6"
         style="fill:#172258;fill-opacity:1;fill-rule:nonzero;stroke:none"
         id="path156" />
      <path
         d="m 6047.1,1048.6 h -128.21 v -23.78 h 51.37 V 532.973 h -51.37 v -23.782 h 178.81 v 23.782 h -50.6 V 1048.6"
         style="fill:#172258;fill-opacity:1;fill-rule:nonzero;stroke:none"
         id="path158" />
      <path
         d="m 6261.69,812.035 c 22.57,0 39.1,-10.375 45.39,-28.527 4.94,-13.223 5.84,-19.246 5.87,-68.028 h -110.97 c 0.01,54.883 0.18,55.223 8.02,70.02 8.33,16.609 27.66,26.535 51.69,26.535 z m 139.04,-120.34 -0.19,4.098 c -1.54,33.652 -6.9,53.535 -20.49,75.961 -25.11,41.617 -69.07,66.449 -117.59,66.449 -78.88,0 -148.07,-78.543 -148.07,-168.09 0,-89.968 70.98,-168.886 151.89,-168.886 63.3,0 116.28,47.847 128.84,116.371 l 0.84,4.632 h -26.2 l -0.72,-2.988 c -14.01,-57.512 -50.7,-91.847 -98.16,-91.847 -27.98,0 -48.49,11.91 -59.35,34.5 -8.12,16.113 -9.55,32.656 -9.55,110.609 v 19.191 h 198.75"
         style="fill:#172258;fill-opacity:1;fill-rule:nonzero;stroke:none"
         id="path160" />
      <path
         d="m 6607.36,668.406 v -11.843 c 0,-39.731 -3.64,-63.973 -11.82,-78.653 -11.56,-21.777 -29.66,-33.785 -50.96,-33.785 -26.74,0 -42.08,18.043 -42.08,49.48 0,24.805 10.68,43.524 32.71,57.274 17.4,11.293 35.9,15.851 72.15,17.527 z m 109.45,-124.433 c -13.62,-11.801 -14.27,-11.801 -20.43,-11.801 -5.84,0 -7.5,1.219 -9.42,7.187 -2.71,6.309 -2.76,6.43 -2.76,81.34 v 87.668 c 0,69.531 -0.43,75.285 -18.62,95.059 -19.06,21.457 -54.85,34.777 -93.4,34.777 -66.21,0 -124.29,-39.074 -124.29,-83.613 0,-22.59 15.51,-38.992 36.88,-38.992 20.16,0 35.37,16.422 35.37,38.203 0,10.351 -3.06,17.492 -11.55,27.101 -2.89,3.746 -3.02,4.457 -3.02,6.364 0,12.355 27.38,29.547 54.34,29.547 15.75,0 31.51,-5.95 38.36,-14.485 7.36,-9.047 9.09,-15.785 9.09,-61.281 V 689.91 c -47.61,-0.972 -79.3,-6.18 -108.78,-17.777 -47.21,-19.961 -72.16,-52.082 -72.16,-92.875 0,-45.945 35.03,-78.031 85.19,-78.031 39.41,0 74.41,19.847 97.47,54.871 7.39,-35.965 30.24,-54.871 66.59,-54.871 21.65,0 37.79,7.25 55.67,25.043 l 2.45,2.429 -13.83,18 -3.15,-2.726"
         style="fill:#172258;fill-opacity:1;fill-rule:nonzero;stroke:none"
         id="path162" />
      <path
         d="m 6901.09,320.191 c -53.59,0 -89.61,32.047 -89.61,79.75 0,22.411 6.88,39.344 23.65,57.993 15.69,-2.137 23.04,-2.137 41.42,-2.137 8.63,0 65.19,0.789 80.67,1.586 12.3,0.515 25.32,0.801 36.63,0.801 29.53,0 39.01,-7.188 39.01,-29.543 0,-61.832 -56.65,-108.45 -131.77,-108.45 z m -33.95,473.516 0.11,0.273 c 4.68,13.946 16.65,20.442 37.67,20.442 20.04,0 31.19,-4.219 37.45,-14.317 6.19,-8.566 7.7,-22.195 7.7,-69.421 0,-49.887 -2.12,-69.551 -8.7,-80.946 -6.83,-12.07 -19,-17.941 -37.21,-17.941 -30.75,0 -43.61,9.867 -43.61,70.996 0,55.562 1.73,79.348 6.59,90.914 z m 180.38,44.496 c -19.06,0 -34.82,-8.75 -55.42,-31.012 -22.76,20.586 -52.07,31.012 -87.18,31.012 -71.29,0 -125.06,-49.644 -125.06,-115.496 0,-35.602 13.92,-63.711 44.97,-90.516 -43.07,-30.015 -64.89,-63.617 -64.89,-99.953 0,-33.203 17.53,-57.851 49.69,-70.363 -33.69,-14.34 -52.76,-39.371 -52.76,-69.906 0,-54.891 63.66,-99.547 141.92,-99.547 97.55,0 165.68,63.219 165.68,153.746 0,34.035 -10.35,59.656 -30.08,74.184 -16.36,11.031 -30.78,14.218 -64.31,14.218 h -22.22 c -26.23,0 -38.99,-0.031 -41.46,-0.797 -52.09,-0.8 -52.09,-0.8 -59.75,-0.8 -40.99,0 -48.21,8.25 -48.21,25.566 0,18.777 16.52,39.801 47.81,60.867 20.38,-9.215 34.38,-12.191 56.37,-12.191 75.44,0 128.12,46.84 128.12,113.906 0,25.402 -7.42,48.551 -22.67,70.637 7.56,8.324 9.51,9.125 12.61,9.125 0.87,0 2.91,0 4.58,-9.574 3.46,-17.977 13.53,-27.09 29.93,-27.09 17.97,0 31.52,14.699 31.52,34.211 0,23.422 -16.12,39.773 -39.19,39.773"
         style="fill:#172258;fill-opacity:1;fill-rule:nonzero;stroke:none"
         id="path164" />
      <path
         d="m 7268.24,668.406 v -11.843 c 0,-39.731 -3.64,-63.973 -11.82,-78.653 -11.56,-21.777 -29.66,-33.785 -50.96,-33.785 -26.74,0 -42.08,18.043 -42.08,49.48 0,24.805 10.68,43.524 32.71,57.274 17.4,11.293 35.9,15.851 72.15,17.527 z m 109.45,-124.433 c -13.62,-11.801 -14.27,-11.801 -20.43,-11.801 -5.84,0 -7.5,1.219 -9.42,7.187 -2.71,6.309 -2.76,6.43 -2.76,81.34 v 87.668 c 0,69.531 -0.43,75.285 -18.62,95.059 -19.06,21.457 -54.85,34.777 -93.4,34.777 -66.21,0 -124.29,-39.074 -124.29,-83.613 0,-22.59 15.51,-38.992 36.88,-38.992 20.16,0 35.37,16.422 35.37,38.203 0,10.351 -3.06,17.492 -11.55,27.101 -2.89,3.746 -3.02,4.457 -3.02,6.364 0,12.355 27.38,29.547 54.34,29.547 15.75,0 31.51,-5.95 38.36,-14.485 7.36,-9.047 9.09,-15.785 9.09,-61.281 V 689.91 c -47.61,-0.972 -79.3,-6.18 -108.78,-17.777 -47.21,-19.961 -72.16,-52.082 -72.16,-92.875 0,-45.945 35.03,-78.031 85.19,-78.031 39.41,0 74.41,19.847 97.47,54.871 7.39,-35.965 30.24,-54.871 66.59,-54.871 21.65,0 37.79,7.25 55.67,25.043 l 2.45,2.429 -13.83,18 -3.15,-2.726"
         style="fill:#172258;fill-opacity:1;fill-rule:nonzero;stroke:none"
         id="path166" />
      <path
         d="m 7508.3,939.547 c 26.28,0 46.86,21.68 46.86,49.351 0,27.672 -20.58,49.352 -46.86,49.352 -26.28,0 -46.09,-20.87 -46.09,-48.551 0,-28.594 19.81,-50.152 46.09,-50.152"
         style="fill:#172258;fill-opacity:1;fill-rule:nonzero;stroke:none"
         id="path168" />
      <path
         d="m 7549.79,830.242 h -128.21 v -23.785 h 51.36 V 532.973 h -51.36 v -23.782 h 178.81 v 23.782 h -50.6 v 297.269"
         style="fill:#172258;fill-opacity:1;fill-rule:nonzero;stroke:none"
         id="path170" />
      <path
         d="m 7835.66,838.203 c -32.71,0 -58.62,-22.082 -78.87,-67.402 v 59.441 h -128.21 v -23.785 h 51.36 V 532.973 h -51.36 v -23.782 h 178.81 v 23.782 h -50.6 v 70.199 c 0,92.172 7.61,136.734 30.14,176.558 7.07,12.247 14.51,17.954 17.3,17.954 1.65,0 2.01,-0.231 2.02,-0.231 1.11,-1.008 1.52,-8.961 1.73,-12.84 1.69,-25.359 16.41,-41.113 38.42,-41.113 23.65,0 41.48,19.16 41.48,44.566 0,29.524 -21.47,50.137 -52.22,50.137"
         style="fill:#172258;fill-opacity:1;fill-rule:nonzero;stroke:none"
         id="path172" />
    </g>
  </g>
</svg>
