<svg role="img" width="1173" height="96" viewBox="0 0 1173 96" preserveAspectRatio="xMinYMin meet" xmlns="http://www.w3.org/2000/svg">
  <title>Department of Agriculture, Environment and Rural Affairs</title>
  <defs>
    <style>
      @import url(https://fonts.googleapis.com/css2?family=Libre+Bodoni%3Aital%2Cwght%400%2C400%3B0%2C500%3B0%2C600%3B0%2C700%3B1%2C400%3B1%2C500%3B1%2C600%3B1%2C700&amp;display=swap);
      @import url(https://fonts.googleapis.com/css2?family=Libre+Franklin%3Aital%2Cwght%400%2C100%3B0%2C200%3B0%2C300%3B0%2C400%3B0%2C500%3B0%2C600%3B0%2C700%3B0%2C800%3B0%2C900%3B1%2C100%3B1%2C200%3B1%2C300%3B1%2C400%3B1%2C500%3B1%2C600%3B1%2C700%3B1%2C800%3B1%2C900&amp;display=swap);
      .svg-logo-txt-sm {font-family: "Libre Franklin", sans-serif; letter-spacing: -0.2px; white-space: nowrap; font-size: 14px;}
      .svg-logo-txt-lg {font-family: "Libre Bodoni", Georgia; font-size: 32px; word-spacing: 4px; letter-spacing:-1.1px; white-space: nowrap;}
    </style>
  </defs>
  <g fill="#00aa4f">
    <path d="m35.5.5 8.9 5.1v10.3L35.5 21l-8.9-5.1V5.7zM35.5 21.2l8.9 5.1v10.3l-8.9 5.1-8.9-5.1V26.3zM53.3 10.9l8.9 5.1v10.3l-8.9 5.1-8.9-5.1V16zM53.3 31.4l8.9 5.1v10.3l-8.9 5.1-8.9-5.1V36.5zM53.3 52l8.9 5.1v10.3l-8.9 5.1-8.9-5.1V57.1zM70.4 21.1v20.6l-8.2-5.1V26.3l8.2-5.1zM70.4 41.7v20.6l-8.2-5.1V46.9l8.2-5.1z"/>
  </g>
  <g fill="#142062">
    <path d="m35.5 41.7 8.9 5.1v10.3l-8.9 5.1-8.9-5.1V46.8zM35.5 62.3l8.9 5.1v10.3l-8.9 5.1-8.9-5.1V67.4zM17.7 10.9l8.9 5.1v10.3l-8.9 5.1-8.9-5.1V16zM17.7 31.4l8.9 5.1v10.3l-8.9 5.1-8.9-5.1V36.5zM17.7 52l8.9 5.1v10.3l-8.9 5.1-8.9-5.1V57.1zM.5 21.1v20.6l8.2-5.1V26.3zM.5 41.8v20.6l8.2-5.1V47z"/>
  </g>
  <g style="fill: rgb(20, 32, 98);" aria-hidden="true">
    <text role="presentation" class="svg-logo-txt-sm" x="87" y="13">Department of</text>
    <text role="presentation" class="svg-logo-txt-lg" x="84" y="48.1">Agriculture, Environment</text>
    <text role="presentation" class="svg-logo-txt-lg" x="85" y="84.1">and Rural Affairs</text>
    <path stroke="#142062" d="M452 0v94"/>
    <text role="presentation" class="svg-logo-txt-sm" x="470" y="13">An Roinn</text>
    <text role="presentation" class="svg-logo-txt-lg" x="468" y="48.1">Talmhaíochta, Comhshaoil</text>
    <text role="presentation" class="svg-logo-txt-lg" x="468" y="84.1">agus Gnóthaí Tuaithe</text>
    <path stroke="#142062" d="M850 0v94"/>
    <text role="presentation" class="svg-logo-txt-sm" x="867" y="13">Depairtment o&apos;</text>
    <text role="presentation" class="svg-logo-txt-lg" x="865" y="48.1">Fairmin, Environment</text>
    <text role="presentation" class="svg-logo-txt-lg" x="866" y="84.1">an&apos; Kintra Matthers</text>
  </g>
</svg>
