<svg viewBox="0 0 475 86" xmlns="http://www.w3.org/2000/svg"><path d="m35.5.5 8.9 5.1v10.3l-8.9 5.1-8.9-5.1v-10.2z" fill="#2b78c6"/><path d="m35.5 21.2 8.9 5.1v10.3l-8.9 5.1-8.9-5.1v-10.3z" fill="#2b78c6"/><path d="m35.5 41.7 8.9 5.1v10.3l-8.9 5.1-8.9-5.1v-10.3z" fill="#142062"/><path d="m35.5 62.3 8.9 5.1v10.3l-8.9 5.1-8.9-5.1v-10.3z" fill="#142062"/><path d="m53.3 10.9 8.9 5.1v10.3l-8.9 5.1-8.9-5.1v-10.3z" fill="#2b78c6"/><path d="m53.3 31.4 8.9 5.1v10.3l-8.9 5.1-8.9-5.1v-10.3z" fill="#2b78c6"/><path d="m53.3 52 8.9 5.1v10.3l-8.9 5.1-8.9-5.1v-10.3z" fill="#2b78c6"/><g fill="#142062"><path d="m17.7 10.9 8.9 5.1v10.3l-8.9 5.1-8.9-5.1v-10.3z"/><path d="m17.7 31.4 8.9 5.1v10.3l-8.9 5.1-8.9-5.1v-10.3z"/><path d="m17.7 52 8.9 5.1v10.3l-8.9 5.1-8.9-5.1v-10.3z"/><path d="m.5 21.1v20.6l8.2-5.1v-10.3z"/><path d="m.5 41.8v20.6l8.2-5.1v-10.3z"/></g><path d="m70.4 21.1v20.6l-8.2-5.1v-10.3l8.2-5.1z" fill="#2b78c6"/><path d="m70.4 41.7v20.6l-8.2-5.1v-10.3l8.2-5.1z" fill="#2b78c6"/><text fill="#142062" font-family="Helvetica, Helvetica" font-size="14" transform="translate(86.9 13)"><tspan x="0" y="0">Department for the</tspan></text><text fill="#142062" font-family="Georgia, Georgia" font-size="40" transform="translate(83.3 54)"><tspan x="0" y="0">Economy</tspan></text><path d="m268.5 0v65" fill="#142062" stroke="#000"/><text fill="#142062" font-family="Helvetica, Helvetica" font-size="14" transform="translate(284.5 13)"><tspan x="0" y="0">An Roinn</tspan></text><text fill="#142062" font-family="Georgia, Georgia" font-size="40" transform="translate(282.6 54)"><tspan x="0" y="0">Geilleagair</tspan></text></svg>