<svg width="459" height="86" viewBox="0 0 459 86" preserveAspectRatio="xMinYMin meet" xmlns="http://www.w3.org/2000/svg">
  <title>Department of Agriculture, Environment and Rural Affairs</title>
  <defs>
    <style>@import url(https://fonts.googleapis.com/css2?family=Libre+Bodoni%3Aital%2Cwght%400%2C400%3B0%2C500%3B0%2C600%3B0%2C700%3B1%2C400%3B1%2C500%3B1%2C600%3B1%2C700&amp;display=swap);</style>
    <style>@import url(https://fonts.googleapis.com/css2?family=Libre+Franklin%3Aital%2Cwght%400%2C100%3B0%2C200%3B0%2C300%3B0%2C400%3B0%2C500%3B0%2C600%3B0%2C700%3B0%2C800%3B0%2C900%3B1%2C100%3B1%2C200%3B1%2C300%3B1%2C400%3B1%2C500%3B1%2C600%3B1%2C700%3B1%2C800%3B1%2C900&amp;display=swap);</style>
  </defs>
  <g style="" transform="matrix(0.689608, 0, 0, 0.689608, 0.162956, 0.198013)">
    <path d="M 51.182 0.504 L 64.092 7.958 L 64.092 22.865 L 51.182 30.318 L 38.272 22.865 L 38.272 7.958 L 51.182 0.504 Z" style="stroke: rgb(0, 0, 0); stroke-width: 0px; fill: rgb(0, 154, 68);"/>
    <path d="M 51.182 30.4 L 64.092 37.854 L 64.092 52.761 L 51.182 60.214 L 38.272 52.761 L 38.272 37.854 L 51.182 30.4 Z" style="stroke: rgb(0, 0, 0); stroke-width: 0px; fill: rgb(0, 154, 68);"/>
    <path d="M 51.182 60.214 L 64.092 67.667 L 64.092 82.574 L 51.182 90.028 L 38.272 82.575 L 38.272 67.667 L 51.182 60.214 Z" style="stroke: rgb(0, 0, 0); stroke-width: 0px; fill: rgb(20, 32, 98);"/>
    <path d="M 51.182 90.028 L 64.092 97.482 L 64.092 112.389 L 51.182 119.842 L 38.272 112.389 L 38.272 97.482 L 51.182 90.028 Z" style="stroke: rgb(0, 0, 0); stroke-width: 0px; fill: rgb(20, 32, 98);"/>
    <path d="M 77.002 15.452 L 89.912 22.906 L 89.912 37.813 L 77.002 45.266 L 64.092 37.813 L 64.092 22.906 L 77.002 15.452 Z" style="stroke: rgb(0, 0, 0); stroke-width: 0px; fill: rgb(0, 154, 68);"/>
    <path d="M 77.002 45.266 L 89.912 52.72 L 89.912 67.627 L 77.002 75.08 L 64.092 67.627 L 64.092 52.72 L 77.002 45.266 Z" style="stroke: rgb(0, 0, 0); stroke-width: 0px; fill: rgb(0, 154, 68);"/>
    <path d="M 77.002 75.08 L 89.912 82.533 L 89.912 97.44 L 77.002 104.894 L 64.092 97.441 L 64.092 82.533 L 77.002 75.08 Z" style="stroke: rgb(0, 0, 0); stroke-width: 0px; fill: rgb(0, 154, 68);"/>
    <path d="M 25.362 15.452 L 38.272 22.906 L 38.272 37.813 L 25.362 45.266 L 12.452 37.813 L 12.452 22.906 L 25.362 15.452 Z" style="stroke: rgb(0, 0, 0); stroke-width: 0px; fill: rgb(20, 32, 98);"/>
    <path d="M 25.362 45.266 L 38.272 52.72 L 38.272 67.627 L 25.362 75.08 L 12.452 67.627 L 12.452 52.72 L 25.362 45.266 Z" style="stroke: rgb(0, 0, 0); stroke-width: 0px; fill: rgb(20, 32, 98);"/>
    <path d="M 25.362 75.08 L 38.272 82.533 L 38.272 97.44 L 25.362 104.894 L 12.452 97.441 L 12.452 82.533 L 25.362 75.08 Z" style="stroke: rgb(0, 0, 0); stroke-width: 0px; fill: rgb(20, 32, 98);"/>
    <path d="M 12.435 60.132 C 12.482 45.134 12.417 30.316 12.435 30.318 L 0.525 37.771 L 0.525 52.678 L 12.435 60.132 Z" style="stroke: rgb(0, 0, 0); stroke-width: 0px; fill: rgb(20, 32, 98);" transform="matrix(-1, 0, 0, -1, 12.977422, 90.450001)"/>
    <path d="M 12.435 90.11 C 12.482 75.112 12.417 60.294 12.435 60.296 L 0.525 67.749 L 0.525 82.656 L 12.435 90.11 Z" style="stroke: rgb(0, 0, 0); stroke-width: 0px; paint-order: fill; fill: rgb(20, 32, 98);" transform="matrix(-1, 0, 0, -1, 12.977422, 150.405998)"/>
    <path d="M 101.822 30.318 C 101.869 45.316 101.804 60.134 101.822 60.132 L 89.912 52.679 L 89.912 37.772 L 101.822 30.318 Z" style="stroke: rgb(0, 0, 0); stroke-width: 0px; fill: rgb(0, 154, 68);"/>
    <path d="M 101.822 60.132 C 101.869 75.13 101.804 89.948 101.822 89.946 L 89.912 82.493 L 89.912 67.586 L 101.822 60.132 Z" style="stroke: rgb(0, 0, 0); stroke-width: 0px; fill: rgb(0, 154, 68);"/>
  </g>
  <text style="fill: rgb(20, 32, 98); font-family: &quot;Libre Franklin&quot;, sans-serif; letter-spacing: -0.2px; white-space: nowrap; font-size: 14px;" x="86.916" y="13">Department of</text>
  <text style="fill: rgb(20, 32, 98); font-family: &quot;Libre Bodoni&quot;, Georgia; font-size: 34px; letter-spacing: -1.5px; word-spacing: 3.5px; white-space: nowrap;" transform="matrix(1, 0, 0, 1, 0, -7)"><tspan x="83.308" y="55">Agriculture, Environment</tspan><tspan x="83.308" dy="1.1em">​</tspan><tspan>and Rural Affairs</tspan></text>
</svg>
