<svg viewBox="0 0 1315 86" xmlns="http://www.w3.org/2000/svg"><title>Department of Agriculture, Environment and Rural Affairs</title><path d="m35.5.5 8.9 5.1v10.3l-8.9 5.1-8.9-5.1v-10.2z" fill="#00aa4f"/><path d="m35.5 21.2 8.9 5.1v10.3l-8.9 5.1-8.9-5.1v-10.3z" fill="#00aa4f"/><path d="m35.5 41.7 8.9 5.1v10.3l-8.9 5.1-8.9-5.1v-10.3z" fill="#142062"/><path d="m35.5 62.3 8.9 5.1v10.3l-8.9 5.1-8.9-5.1v-10.3z" fill="#142062"/><path d="m53.3 10.9 8.9 5.1v10.3l-8.9 5.1-8.9-5.1v-10.3z" fill="#00aa4f"/><path d="m53.3 31.4 8.9 5.1v10.3l-8.9 5.1-8.9-5.1v-10.3z" fill="#00aa4f"/><path d="m53.3 52 8.9 5.1v10.3l-8.9 5.1-8.9-5.1v-10.3z" fill="#00aa4f"/><path d="m17.7 10.9 8.9 5.1v10.3l-8.9 5.1-8.9-5.1v-10.3z" fill="#142062"/><path d="m17.7 31.4 8.9 5.1v10.3l-8.9 5.1-8.9-5.1v-10.3z" fill="#142062"/><path d="m17.7 52 8.9 5.1v10.3l-8.9 5.1-8.9-5.1v-10.3z" fill="#142062"/><path d="m.5 21.1v20.6l8.2-5.1v-10.3z" fill="#142062"/><path d="m.5 41.8v20.6l8.2-5.1v-10.3z" fill="#142062"/><path d="m70.4 21.1v20.6l-8.2-5.1v-10.3l8.2-5.1z" fill="#00aa4f"/><path d="m70.4 41.7v20.6l-8.2-5.1v-10.3l8.2-5.1z" fill="#00aa4f"/><g fill="#142062"><text font-family="Helvetica, Helvetica" font-size="14" transform="translate(80 13)"><tspan x="0" y="0">Department for</tspan></text><text font-family="Georgia, Georgia" font-size="36" transform="translate(80.7 43.1)"><tspan x="0" y="0">Agriculture, Environment</tspan></text><text font-family="Georgia, Georgia" font-size="36" transform="translate(80 78.1)"><tspan x="0" y="0">and Rural Affairs</tspan></text><path d="m500 1.2v65" stroke="#000"/><text font-family="Helvetica, Helvetica" font-size="14" transform="translate(510 13)"><tspan x="0" y="0">An Roinn</tspan></text><text font-family="Georgia, Georgia" font-size="36" transform="translate(510 43.1)"><tspan x="0" y="0">Talmhaíochta, Comhshaoil</tspan></text><text font-family="Georgia, Georgia" font-size="36" transform="translate(510 78.1)"><tspan x="0" y="0">agus Gnóthaí Tuaithe</tspan></text><path d="m947 1.2v65" stroke="#000"/><text font-family="Helvetica, Helvetica" font-size="14" transform="translate(957 13)"><tspan x="0" y="0">Depairtment o'</tspan></text><text font-family="Georgia, Georgia" font-size="36" transform="translate(957 43.1)"><tspan x="0" y="0">Fairmin, Environment</tspan></text><text font-family="Georgia, Georgia" font-size="36" transform="translate(957 78.1)"><tspan x="0" y="0">an' Kintra Matthers</tspan></text></g></svg>
