<?xml version="1.0" encoding="UTF-8"?>
<svg xmlns="http://www.w3.org/2000/svg" width="600" height="300" viewBox="0 0 600 300">
  <defs>
    <style>
      .cls-1 {
        fill: #fff;
      }

      .cls-2 {
        fill: #1b7fb0;
      }
    </style>
  </defs>
  <rect class="cls-2" width="600" height="300"/>
  <g>
    <path class="cls-1" d="m300,26.65l26.69,15.41v30.82l-26.69,15.41-26.69-15.41v-30.82l26.69-15.41Z"/>
    <path class="cls-1" d="m300,88.45l26.69,15.41v30.82l-26.69,15.41-26.69-15.41v-30.82l26.69-15.41Z"/>
    <path class="cls-1" d="m300,150.08l26.69,15.41v30.82l-26.69,15.41-26.69-15.41v-30.82l26.69-15.41Z"/>
    <path class="cls-1" d="m300,211.72l26.69,15.41v30.82l-26.69,15.41-26.69-15.41v-30.82l26.69-15.41Z"/>
    <path class="cls-1" d="m353.38,57.55l26.69,15.41v30.82l-26.69,15.41-26.69-15.41v-30.82l26.69-15.41Z"/>
    <path class="cls-1" d="m353.38,119.18l26.69,15.41v30.82l-26.69,15.41-26.69-15.41v-30.82l26.69-15.41Z"/>
    <path class="cls-1" d="m353.38,180.82l26.69,15.41v30.82l-26.69,15.41-26.69-15.41v-30.82l26.69-15.41Z"/>
    <path class="cls-1" d="m246.62,57.55l26.69,15.41v30.82l-26.69,15.41-26.69-15.41v-30.82l26.69-15.41Z"/>
    <path class="cls-1" d="m246.62,119.18l26.69,15.41v30.82l-26.69,15.41-26.69-15.41v-30.82l26.69-15.41Z"/>
    <path class="cls-1" d="m246.62,180.82l26.69,15.41v30.82l-26.69,15.41-26.69-15.41v-30.82l26.69-15.41Z"/>
    <path class="cls-1" d="m195.32,88.28c-.1,31,.04,61.64,0,61.63l24.62-15.41v-30.82l-24.62-15.41Z"/>
    <path class="cls-1" d="m195.32,150.25c-.1,31,.04,61.64,0,61.63l24.62-15.41v-30.82l-24.62-15.41Z"/>
    <path class="cls-1" d="m404.68,88.28c.1,31-.04,61.64,0,61.63l-24.62-15.41v-30.82l24.62-15.41Z"/>
    <path class="cls-1" d="m404.68,149.92c.1,31-.04,61.64,0,61.63l-24.62-15.41v-30.82l24.62-15.41Z"/>
  </g>
</svg>
