<?xml version="1.0" encoding="UTF-8"?><svg id="Layer_1" xmlns="http://www.w3.org/2000/svg" viewBox="0 0 134.54 135.54"><defs><style>.cls-1{fill:#fff;}</style></defs><path class="cls-1" d="m98.7,120.5c-7.8-.65-13.99-3.5-19.81-7.26-10.98-7.1-19.99-16.33-28.05-26.52-4.64-5.87-9.43-11.67-13.55-17.9-4.48-6.77-8.63-13.83-12.24-21.11-2.46-4.98-3.92-10.5-5.49-15.87-1.2-4.13.9-7.08,4.21-9.51,3.77-2.77,7.17-6.05,11.02-8.68,3.65-2.49,5.73-1.82,8.52,1.67,4.66,5.82,9.36,11.62,14.05,17.41,1.59,1.97.63,5.47-1.91,7.49-4.03,3.2-8.13,6.36-11.83,9.92-.73.7-.37,3.63.5,4.74,9.03,11.51,18.27,22.86,27.45,34.26,1.05,1.31,2.1,2.62,3.13,3.95,2.25,2.9,4.45,1.53,6.57-.13,3.75-2.93,7.46-5.91,11.18-8.89,1.76-1.41,5.49-.76,6.9,1.03,4.86,6.14,9.77,12.25,14.75,18.29,1.94,2.35,1.14,5.58-2.21,8.22-3.16,2.5-6.21,5.17-9.47,7.54-1.2.87-2.89,1.07-3.73,1.36Z"/></svg>