<svg width="180px" height="180px" viewBox="0 0 180 180" preserveAspectRatio="xMidYMid slice" xmlns="http://www.w3.org/2000/svg">
<title>Northern Ireland Executive</title>
<g transform="matrix(0.816757, 0, 0, 0.816757, -19.462181, 21.56547)" style="transform-origin: 89.9995px 0.727061px;">
<g fill="rgb(20, 32, 98)">
<path d="M 0.591 141.617 L 45.294 167.428 L 45.294 219.046 L 0.591 244.853 L -44.113 219.052 L -44.113 167.428 L 0.591 141.617 Z"></path>
<path d="M 0.591 38.384 L 45.294 64.193 L 45.294 115.809 L 0.591 141.617 L -44.113 115.809 L -44.113 64.193 L 0.591 38.384 Z"></path>
</g>
<g fill="rgb(202, 44, 146)">
<path d="M 90.004 90.141 L 134.709 115.951 L 134.709 167.568 L 90.004 193.381 L 45.294 167.574 L 45.294 115.951 L 90.004 90.141 Z"></path>
<path d="M 179.407 141.617 L 224.112 167.428 L 224.112 219.046 L 179.407 244.853 L 134.709 219.052 L 134.709 167.428 L 179.407 141.617 Z"></path>
<path d="M 179.407 38.384 L 224.112 64.193 L 224.112 115.809 L 179.407 141.617 L 134.709 115.809 L 134.709 64.193 L 179.407 38.384 Z"></path>
<path d="M 90.004 -13.099 L 134.709 12.713 L 134.709 64.332 L 90.004 90.141 L 45.294 64.332 L 45.294 12.713 L 90.004 -13.099 Z"></path>
</g></g>
</svg>
